<?xml version="1.0" encoding="UTF-8"?>
<svg width="7168px" height="1024px" viewBox="0 0 7168 1024" version="1.1" xmlns="http://www.w3.org/2000/svg" xmlns:xlink="http://www.w3.org/1999/xlink">
    <!-- Generator: Sketch 55.2 (78181) - https://sketchapp.com -->
    <title>EyeLidForBlink</title>
    <desc>Created with Sketch.</desc>
    <g id="EyeLidForBlink" stroke="none" strokeWidth="1" fill="none" fillRule="evenodd">
        <g id="Group-7">
            <rect id="Rectangle" x="0" y="0" width="1024" height="1024"></rect>
            <path d="M535.329038,469.066392 C548.888887,478.333991 567.046444,484 587,484 C606.953556,484 625.111113,478.333991 638.670962,469.066392 C626.579334,484.260209 607.927092,494 587,494 C566.072908,494 547.420666,484.260209 535.329038,469.066392 Z M535.329038,386.933608 C547.420666,371.739791 566.072908,362 587,362 C607.927092,362 626.579334,371.739791 638.670962,386.933608 C625.111113,377.666009 606.953556,372 587,372 C567.046444,372 548.888887,377.666009 535.329038,386.933608 Z" id="Combined-Shape" fill="#4AA810"></path>
            <path d="M386,469.066392 C399.559849,478.333991 417.717406,484 437.670962,484 C457.624518,484 475.782075,478.333991 489.341924,469.066392 C477.250296,484.260209 458.598054,494 437.670962,494 C416.74387,494 398.091628,484.260209 386,469.066392 Z M386,386.933608 C398.091628,371.739791 416.74387,362 437.670962,362 C458.598054,362 477.250296,371.739791 489.341924,386.933608 C475.782075,377.666009 457.624518,372 437.670962,372 C417.717406,372 399.559849,377.666009 386,386.933608 Z" id="Combined-Shape" fill="#4AA810"></path>
        </g>
        <g id="Group-6" transform="translate(1024.000000, 0.000000)">
            <rect id="Rectangle" x="0" y="0" width="1024" height="1024"></rect>
            <path d="M529.77393,460.903531 C543.70495,471.381838 564.177701,478 587,478 C609.822299,478 630.29505,471.381838 644.22607,460.903531 C632.828154,480.684164 611.469117,494 587,494 C562.530883,494 541.171846,480.684164 529.77393,460.903531 Z M529.77393,395.096469 C541.171846,375.315836 562.530883,362 587,362 C611.469117,362 632.828154,375.315836 644.22607,395.096469 C630.29505,384.618162 609.822299,378 587,378 C564.177701,378 543.70495,384.618162 529.77393,395.096469 Z" id="Combined-Shape" fill="#4AA810"></path>
            <path d="M380.444892,460.903531 C394.375912,471.381838 414.848664,478 437.670962,478 C460.493261,478 480.966013,471.381838 494.897033,460.903531 C483.499116,480.684164 462.140079,494 437.670962,494 C413.201845,494 391.842809,480.684164 380.444892,460.903531 Z M380.444892,395.096469 C391.842809,375.315836 413.201845,362 437.670962,362 C462.140079,362 483.499116,375.315836 494.897033,395.096469 C480.966013,384.618162 460.493261,378 437.670962,378 C414.848664,378 394.375912,384.618162 380.444892,395.096469 Z" id="Combined-Shape" fill="#4AA810"></path>
        </g>
        <g id="Group-5" transform="translate(2048.000000, 0.000000)">
            <rect id="Rectangle" x="0" y="0" width="1024" height="1024"></rect>
            <path d="M521.271618,434.028344 C534.437736,437.599516 558.943435,440 587,440 C615.056565,440 639.562264,437.599516 652.728382,434.028344 C649.683687,467.653807 621.418585,494 587,494 C552.581415,494 524.316313,467.653807 521.271618,434.028344 Z M521.271618,421.971656 C524.316313,388.346193 552.581415,362 587,362 C621.418585,362 649.683687,388.346193 652.728382,421.971656 C639.562264,418.400484 615.056565,416 587,416 C558.943435,416 534.437736,418.400484 521.271618,421.971656 Z" id="Combined-Shape" fill="#4AA810"></path>
            <path d="M371.942581,434.028344 C385.108698,437.599516 409.614397,440 437.670962,440 C465.727527,440 490.233226,437.599516 503.399344,434.028344 C500.354649,467.653807 472.089547,494 437.670962,494 C403.252377,494 374.987276,467.653807 371.942581,434.028344 Z M371.942581,421.971656 C374.987276,388.346193 403.252377,362 437.670962,362 C472.089547,362 500.354649,388.346193 503.399344,421.971656 C490.233226,418.400484 465.727527,416 437.670962,416 C409.614397,416 385.108698,418.400484 371.942581,421.971656 Z" id="Combined-Shape" fill="#4AA810"></path>
        </g>
        <g id="Group-4" transform="translate(3072.000000, 0.000000)">
            <rect id="Rectangle" x="0" y="0" width="1024" height="1024"></rect>
            <path d="M521.001038,428.374049 C534.100148,428.449298 558.750086,428.5 587,428.5 C615.249914,428.5 639.899852,428.449298 652.998962,428.374049 C652.797637,464.65273 623.326029,494 587,494 C550.673971,494 521.202363,464.65273 521.001038,428.374049 Z M521.000118,428.125956 C521.000039,428.08398 521,428.041995 521,428 C521,391.549207 550.549207,362 587,362 C623.450793,362 653,391.549207 653,428 C653,428.041995 652.999961,428.08398 652.999882,428.125956 C639.901007,428.050704 615.250576,428 587,428 C558.749424,428 534.098993,428.050704 521.000118,428.125956 Z" id="Combined-Shape" fill="#4AA810"></path>
            <path d="M371.672,428.374049 C384.77111,428.449298 409.421048,428.5 437.670962,428.5 C465.920876,428.5 490.570815,428.449298 503.669925,428.374049 C503.468599,464.65273 473.996992,494 437.670962,494 C401.344933,494 371.873326,464.65273 371.672,428.374049 Z M371.67108,428.125956 C371.671001,428.08398 371.670962,428.041995 371.670962,428 C371.670962,391.549207 401.220169,362 437.670962,362 C474.121756,362 503.670962,391.549207 503.670962,428 C503.670962,428.041995 503.670923,428.08398 503.670845,428.125956 C490.571969,428.050704 465.921538,428 437.670962,428 C409.420387,428 384.769956,428.050704 371.67108,428.125956 Z" id="Combined-Shape" fill="#4AA810"></path>
        </g>
        <g id="Group-3" transform="translate(4096.000000, 0.000000)">
            <rect id="Rectangle" x="0" y="0" width="1024" height="1024"></rect>
            <path d="M521.271618,434.028344 C534.437736,437.599516 558.943435,440 587,440 C615.056565,440 639.562264,437.599516 652.728382,434.028344 C649.683687,467.653807 621.418585,494 587,494 C552.581415,494 524.316313,467.653807 521.271618,434.028344 Z M521.271618,421.971656 C524.316313,388.346193 552.581415,362 587,362 C621.418585,362 649.683687,388.346193 652.728382,421.971656 C639.562264,418.400484 615.056565,416 587,416 C558.943435,416 534.437736,418.400484 521.271618,421.971656 Z" id="Combined-Shape" fill="#4AA810"></path>
            <path d="M371.942581,434.028344 C385.108698,437.599516 409.614397,440 437.670962,440 C465.727527,440 490.233226,437.599516 503.399344,434.028344 C500.354649,467.653807 472.089547,494 437.670962,494 C403.252377,494 374.987276,467.653807 371.942581,434.028344 Z M371.942581,421.971656 C374.987276,388.346193 403.252377,362 437.670962,362 C472.089547,362 500.354649,388.346193 503.399344,421.971656 C490.233226,418.400484 465.727527,416 437.670962,416 C409.614397,416 385.108698,418.400484 371.942581,421.971656 Z" id="Combined-Shape" fill="#4AA810"></path>
        </g>
        <g id="Group-2" transform="translate(5120.000000, 0.000000)">
            <rect id="Rectangle" x="0" y="0" width="1024" height="1024"></rect>
            <path d="M525.888353,452.973225 C539.733813,463.303454 561.951803,470 587,470 C612.048197,470 634.266187,463.303454 648.111647,452.973225 C638.265524,477.042512 614.613079,494 587,494 C559.386921,494 535.734476,477.042512 525.888353,452.973225 Z M525.888353,403.026775 C535.734476,378.957488 559.386921,362 587,362 C614.613079,362 638.265524,378.957488 648.111647,403.026775 C634.266187,392.696546 612.048197,386 587,386 C561.951803,386 539.733813,392.696546 525.888353,403.026775 Z" id="Combined-Shape" fill="#4AA810"></path>
            <path d="M376.559315,452.973225 C390.404776,463.303454 412.622765,470 437.670962,470 C462.719159,470 484.937149,463.303454 498.78261,452.973225 C488.936487,477.042512 465.284041,494 437.670962,494 C410.057883,494 386.405438,477.042512 376.559315,452.973225 Z M376.559315,403.026775 C386.405438,378.957488 410.057883,362 437.670962,362 C465.284041,362 488.936487,378.957488 498.78261,403.026775 C484.937149,392.696546 462.719159,386 437.670962,386 C412.622765,386 390.404776,392.696546 376.559315,403.026775 Z" id="Combined-Shape" fill="#4AA810"></path>
        </g>
        <g id="Group" transform="translate(6144.000000, 0.000000)">
            <rect id="Rectangle" x="0" y="0" width="1024" height="1024"></rect>
            <path d="M529.77393,460.903531 C543.70495,471.381838 564.177701,478 587,478 C609.822299,478 630.29505,471.381838 644.22607,460.903531 C632.828154,480.684164 611.469117,494 587,494 C562.530883,494 541.171846,480.684164 529.77393,460.903531 Z M529.77393,395.096469 C541.171846,375.315836 562.530883,362 587,362 C611.469117,362 632.828154,375.315836 644.22607,395.096469 C630.29505,384.618162 609.822299,378 587,378 C564.177701,378 543.70495,384.618162 529.77393,395.096469 Z" id="Combined-Shape" fill="#4AA810"></path>
            <path d="M380.444892,460.903531 C394.375912,471.381838 414.848664,478 437.670962,478 C460.493261,478 480.966013,471.381838 494.897033,460.903531 C483.499116,480.684164 462.140079,494 437.670962,494 C413.201845,494 391.842809,480.684164 380.444892,460.903531 Z M380.444892,395.096469 C391.842809,375.315836 413.201845,362 437.670962,362 C462.140079,362 483.499116,375.315836 494.897033,395.096469 C480.966013,384.618162 460.493261,378 437.670962,378 C414.848664,378 394.375912,384.618162 380.444892,395.096469 Z" id="Combined-Shape" fill="#4AA810"></path>
        </g>
    </g>
</svg>