<?xml version="1.0" encoding="UTF-8" ?>
<svg width="4096px" height="1024px" viewBox="0 0 4096 1024" version="1.1" xmlns="http://www.w3.org/2000/svg" xmlns:xlink="http://www.w3.org/1999/xlink">
    <!-- Generator: Sketch 55.2 (78181) - https://sketchapp.com -->
    <title>EyesGoSmile</title>
    <desc>Created with Sketch.</desc>
    <g id="EyesGoSmile" stroke="none" strokeWidth="1" fill="none" fillRule="evenodd">
        <g id="Group">
            <rect id="Rectangle" x="0" y="0" width="1024" height="1024"></rect>
            <path d="M535.329038,469.066392 C548.888887,478.333991 567.046444,484 587,484 C606.953556,484 625.111113,478.333991 638.670962,469.066392 C626.579334,484.260209 607.927092,494 587,494 C566.072908,494 547.420666,484.260209 535.329038,469.066392 Z M535.329038,386.933608 C547.420666,371.739791 566.072908,362 587,362 C607.927092,362 626.579334,371.739791 638.670962,386.933608 C625.111113,377.666009 606.953556,372 587,372 C567.046444,372 548.888887,377.666009 535.329038,386.933608 Z" id="Combined-Shape" fill="#4AA810"></path>
            <path d="M386,469.066392 C399.559849,478.333991 417.717406,484 437.670962,484 C457.624518,484 475.782075,478.333991 489.341924,469.066392 C477.250296,484.260209 458.598054,494 437.670962,494 C416.74387,494 398.091628,484.260209 386,469.066392 Z M386,386.933608 C398.091628,371.739791 416.74387,362 437.670962,362 C458.598054,362 477.250296,371.739791 489.341924,386.933608 C475.782075,377.666009 457.624518,372 437.670962,372 C417.717406,372 399.559849,377.666009 386,386.933608 Z" id="Combined-Shape" fill="#4AA810"></path>
        </g>
        <g id="Group" transform="translate(1024.000000, 0.000000)">
            <rect id="Rectangle" x="0" y="0" width="1024" height="1024"></rect>
            <path d="M529.77393,460.903531 C543.70495,471.381838 564.177701,478 587,478 C609.822299,478 630.29505,471.381838 644.22607,460.903531 C632.828154,480.684164 611.469117,494 587,494 C562.530883,494 541.171846,480.684164 529.77393,460.903531 Z M529.77393,395.096469 C541.171846,375.315836 562.530883,362 587,362 C611.469117,362 632.828154,375.315836 644.22607,395.096469 C630.29505,384.618162 609.822299,378 587,378 C564.177701,378 543.70495,384.618162 529.77393,395.096469 Z" id="Combined-Shape" fill="#4AA810"></path>
            <path d="M380.444892,460.903531 C394.375912,471.381838 414.848664,478 437.670962,478 C460.493261,478 480.966013,471.381838 494.897033,460.903531 C483.499116,480.684164 462.140079,494 437.670962,494 C413.201845,494 391.842809,480.684164 380.444892,460.903531 Z M380.444892,395.096469 C391.842809,375.315836 413.201845,362 437.670962,362 C462.140079,362 483.499116,375.315836 494.897033,395.096469 C480.966013,384.618162 460.493261,378 437.670962,378 C414.848664,378 394.375912,384.618162 380.444892,395.096469 Z" id="Combined-Shape" fill="#4AA810"></path>
        </g>
        <g id="Group" transform="translate(2048.000000, 0.000000)">
            <rect id="Rectangle" x="0" y="0" width="1024" height="1024"></rect>
            <path d="M521.271618,434.028344 C534.437736,437.599516 558.943435,440 587,440 C615.056565,440 639.562264,437.599516 652.728382,434.028344 C649.683687,467.653807 621.418585,494 587,494 C552.581415,494 524.316313,467.653807 521.271618,434.028344 Z M521.271618,421.971656 C524.316313,388.346193 552.581415,362 587,362 C621.418585,362 649.683687,388.346193 652.728382,421.971656 C639.562264,418.400484 615.056565,416 587,416 C558.943435,416 534.437736,418.400484 521.271618,421.971656 Z" id="Combined-Shape" fill="#4AA810"></path>
            <path d="M371.942581,434.028344 C385.108698,437.599516 409.614397,440 437.670962,440 C465.727527,440 490.233226,437.599516 503.399344,434.028344 C500.354649,467.653807 472.089547,494 437.670962,494 C403.252377,494 374.987276,467.653807 371.942581,434.028344 Z M371.942581,421.971656 C374.987276,388.346193 403.252377,362 437.670962,362 C472.089547,362 500.354649,388.346193 503.399344,421.971656 C490.233226,418.400484 465.727527,416 437.670962,416 C409.614397,416 385.108698,418.400484 371.942581,421.971656 Z" id="Combined-Shape" fill="#4AA810"></path>
        </g>
        <g id="Group" transform="translate(3072.000000, 0.000000)">
            <rect id="Rectangle" x="0" y="0" width="1024" height="1024"></rect>
            <circle id="Oval" fill="#4AA810" cx="587" cy="428" r="70"></circle>
            <path d="M389,431.399858 C394.99471,418.891468 411.503545,412.431038 438.526503,412.018566 C465.549461,411.606094 482.040627,418.066524 488,431.399858" id="Line-3" stroke="#17191C" strokeWidth="10" strokeLinecap="round"></path>
            <circle id="Oval-Copy-4" fill="#4AA810" cx="438" cy="428" r="70"></circle>
            <path d="M389,431.399858 C394.99471,418.891468 411.503545,412.431038 438.526503,412.018566 C465.549461,411.606094 482.040627,418.066524 488,431.399858" id="Line-3" stroke="#17191C" strokeWidth="10" strokeLinecap="round"></path>
            <path d="M538,431.399858 C543.99471,418.891468 560.503545,412.431038 587.526503,412.018566 C614.549461,411.606094 631.040627,418.066524 637,431.399858" id="Line-3-Copy" stroke="#17191C" strokeWidth="10" strokeLinecap="round"></path>
        </g>
    </g>
</svg>