<?xml version="1.0" encoding="UTF-8"?>
<svg width="8192px" height="1024px" viewBox="0 0 8192 1024" version="1.1" xmlns="http://www.w3.org/2000/svg" xmlns:xlink="http://www.w3.org/1999/xlink">
    <!-- Generator: Sketch 55.2 (78181) - https://sketchapp.com -->
    <title>RightBigWingMove</title>
    <desc>Created with Sketch.</desc>
    <g id="RightBigWingMove" stroke="none" strokeWidth="1" fill="none" fillRule="evenodd">
        <rect id="Rectangle" x="0" y="0" width="1024" height="1024"></rect>
        <path d="M715.361701,415.637555 C761.855101,441.044997 793.209467,489.0559 793.209467,544.099092 C793.209467,598.58997 762.481176,646.188978 716.756683,671.788988 C670.263283,646.381546 638.908917,598.370642 638.908917,543.32745 C638.908917,488.836573 669.637208,441.237565 715.361701,415.637555 Z" id="Combined-Shape-Copy-2" stroke="#C7CBD1" strokeWidth="15" fill="#C7CBD1" transform="translate(716.059192, 543.713271) scale(-1, 1) rotate(-59.000000) translate(-716.059192, -543.713271) "></path>
        <rect id="Rectangle" x="1024" y="0" width="1024" height="1024"></rect>
        <path d="M1731.70607,402.868355 C1778.19947,428.275797 1809.55384,476.286701 1809.55384,531.329892 C1809.55384,585.82077 1778.82555,633.419778 1733.10106,659.019788 C1686.60766,633.612346 1655.25329,585.601442 1655.25329,530.558251 C1655.25329,476.067373 1685.98158,428.468365 1731.70607,402.868355 Z" id="Combined-Shape-Copy-2" stroke="#C7CBD1" strokeWidth="15" fill="#C7CBD1" transform="translate(1732.403566, 530.944072) scale(-1, 1) rotate(-64.000000) translate(-1732.403566, -530.944072) "></path>
        <rect id="Rectangle" x="2048" y="0" width="1024" height="1024"></rect>
        <path d="M2746.87985,390.822574 C2793.37325,416.230016 2824.72761,464.240919 2824.72761,519.284111 C2824.72761,573.774989 2793.99932,621.373997 2748.27483,646.974007 C2701.78143,621.566565 2670.42706,573.555661 2670.42706,518.512469 C2670.42706,464.021592 2701.15536,416.422584 2746.87985,390.822574 Z" id="Combined-Shape-Copy-2" stroke="#C7CBD1" strokeWidth="15" fill="#C7CBD1" transform="translate(2747.577339, 518.898290) scale(-1, 1) rotate(-69.000000) translate(-2747.577339, -518.898290) "></path>
        <rect id="Rectangle" x="3072" y="0" width="1024" height="1024"></rect>
        <path d="M3779.74965,402.866452 C3826.24305,428.273894 3857.59742,476.284798 3857.59742,531.32799 C3857.59742,585.818867 3826.86913,633.417875 3781.14464,659.017886 C3734.65124,633.610443 3703.29687,585.59954 3703.29687,530.556348 C3703.29687,476.065471 3734.02516,428.466463 3779.74965,402.866452 Z" id="Combined-Shape-Copy-2" stroke="#C7CBD1" strokeWidth="15" fill="#C7CBD1" transform="translate(3780.447144, 530.942169) scale(-1, 1) rotate(-64.000000) translate(-3780.447144, -530.942169) "></path>
        <rect id="Rectangle" x="4096" y="0" width="1024" height="1024"></rect>
        <path d="M4811.3617,415.637555 C4857.8551,441.044997 4889.20947,489.0559 4889.20947,544.099092 C4889.20947,598.58997 4858.48118,646.188978 4812.75668,671.788988 C4766.26328,646.381546 4734.90892,598.370642 4734.90892,543.32745 C4734.90892,488.836573 4765.63721,441.237565 4811.3617,415.637555 Z" id="Combined-Shape-Copy-2" stroke="#C7CBD1" strokeWidth="15" fill="#C7CBD1" transform="translate(4812.059192, 543.713271) scale(-1, 1) rotate(-59.000000) translate(-4812.059192, -543.713271) "></path>
        <rect id="Rectangle" x="5120" y="0" width="1024" height="1024"></rect>
        <path d="M5841.91886,429.027298 C5888.41226,454.43474 5919.76663,502.445644 5919.76663,557.488836 C5919.76663,611.979713 5889.03834,659.578721 5843.31385,685.178732 C5796.82045,659.771289 5765.46608,611.760386 5765.46608,556.717194 C5765.46608,502.226316 5796.19437,454.627309 5841.91886,429.027298 Z" id="Combined-Shape-Copy-2" stroke="#C7CBD1" strokeWidth="15" fill="#C7CBD1" transform="translate(5842.616354, 557.103015) scale(-1, 1) rotate(-54.000000) translate(-5842.616354, -557.103015) "></path>
        <rect id="RightBigWing07" x="6144" y="0" width="1024" height="1024"></rect>
        <path d="M6871.11043,442.922392 C6917.60383,468.329834 6948.9582,516.340738 6948.9582,571.383929 C6948.9582,625.874807 6918.22991,673.473815 6872.50542,699.073825 C6826.01202,673.666383 6794.65765,625.655479 6794.65765,570.612288 C6794.65765,516.12141 6825.38594,468.522402 6871.11043,442.922392 Z" id="Combined-Shape-Copy-2" stroke="#C7CBD1" strokeWidth="15" fill="#C7CBD1" transform="translate(6871.807924, 570.998108) scale(-1, 1) rotate(-49.000000) translate(-6871.807924, -570.998108) "></path>
        <rect id="Rectangle" x="7168" y="0" width="1024" height="1024"></rect>
        <path d="M7889.91886,429.027298 C7936.41226,454.43474 7967.76663,502.445644 7967.76663,557.488836 C7967.76663,611.979713 7937.03834,659.578721 7891.31385,685.178732 C7844.82045,659.771289 7813.46608,611.760386 7813.46608,556.717194 C7813.46608,502.226316 7844.19437,454.627309 7889.91886,429.027298 Z" id="Combined-Shape-Copy-2" stroke="#C7CBD1" strokeWidth="15" fill="#C7CBD1" transform="translate(7890.616354, 557.103015) scale(-1, 1) rotate(-54.000000) translate(-7890.616354, -557.103015) "></path>
    </g>
</svg>