<?xml version="1.0" encoding="UTF-8" ?>
<svg width="7168px" height="1024px" viewBox="0 0 7168 1024" version="1.1" xmlns="http://www.w3.org/2000/svg" xmlns:xlink="http://www.w3.org/1999/xlink">
    <!-- Generator: Sketch 55.2 (78181) - https://sketchapp.com -->
    <title>Wink</title>
    <desc>Created with Sketch.</desc>
    <g id="Wink" stroke="none" strokeWidth="1" fill="none" fillRule="evenodd">
        <g id="Group">
            <rect id="Rectangle" x="0" y="0" width="1024" height="1024"></rect>
            <path d="M386,469.066392 C399.559849,478.333991 417.717406,484 437.670962,484 C457.624518,484 475.782075,478.333991 489.341924,469.066392 C477.250296,484.260209 458.598054,494 437.670962,494 C416.74387,494 398.091628,484.260209 386,469.066392 Z M386,386.933608 C398.091628,371.739791 416.74387,362 437.670962,362 C458.598054,362 477.250296,371.739791 489.341924,386.933608 C475.782075,377.666009 457.624518,372 437.670962,372 C417.717406,372 399.559849,377.666009 386,386.933608 Z" id="Combined-Shape" fill="#4AA810"></path>
        </g>
        <g id="Group" transform="translate(1024.000000, 0.000000)">
            <rect id="Rectangle" x="0" y="0" width="1024" height="1024"></rect>
            <path d="M380.444892,460.903531 C394.375912,471.381838 414.848664,478 437.670962,478 C460.493261,478 480.966013,471.381838 494.897033,460.903531 C483.499116,480.684164 462.140079,494 437.670962,494 C413.201845,494 391.842809,480.684164 380.444892,460.903531 Z M380.444892,395.096469 C391.842809,375.315836 413.201845,362 437.670962,362 C462.140079,362 483.499116,375.315836 494.897033,395.096469 C480.966013,384.618162 460.493261,378 437.670962,378 C414.848664,378 394.375912,384.618162 380.444892,395.096469 Z" id="Combined-Shape" fill="#4AA810"></path>
            <polygon id="Rectangle" fillOpacity="0.653982736" fill="#FBE66A" transform="translate(333.500000, 411.500000) rotate(45.000000) translate(-333.500000, -411.500000) " points="324.5 402.5 333.5 405.772727 342.5 402.5 339.227273 411.5 342.5 420.5 333.5 417.227273 324.5 420.5 327.772727 411.5"></polygon>
        </g>
        <g id="Group" transform="translate(2048.000000, 0.000000)">
            <rect id="Rectangle" x="0" y="0" width="1024" height="1024"></rect>
            <path d="M371.942581,434.028344 C385.108698,437.599516 409.614397,440 437.670962,440 C465.727527,440 490.233226,437.599516 503.399344,434.028344 C500.354649,467.653807 472.089547,494 437.670962,494 C403.252377,494 374.987276,467.653807 371.942581,434.028344 Z M371.942581,421.971656 C374.987276,388.346193 403.252377,362 437.670962,362 C472.089547,362 500.354649,388.346193 503.399344,421.971656 C490.233226,418.400484 465.727527,416 437.670962,416 C409.614397,416 385.108698,418.400484 371.942581,421.971656 Z" id="Combined-Shape" fill="#4AA810"></path>
            <polygon id="Rectangle" fillOpacity="0.653982736" fill="#FBE66A" transform="translate(333.500000, 411.500000) rotate(45.000000) translate(-333.500000, -411.500000) " points="312.5 390.5 333.5 398.136364 354.5 390.5 346.863636 411.5 354.5 432.5 333.5 424.863636 312.5 432.5 320.136364 411.5"></polygon>
        </g>
        <g id="Group" transform="translate(3072.000000, 0.000000)">
            <rect id="Rectangle" x="0" y="0" width="1024" height="1024"></rect>
            <circle id="Oval-Copy-4" fill="#4AA810" cx="438" cy="428" r="70"></circle>
            <path d="M389,431.399858 C394.99471,418.891468 411.503545,412.431038 438.526503,412.018566 C465.549461,411.606094 482.040627,418.066524 488,431.399858" id="Line-3" stroke="#17191C" strokeWidth="10" strokeLinecap="round"></path>
            <polygon id="Rectangle" fill="#FBE66A" transform="translate(333.500000, 411.500000) rotate(45.000000) translate(-333.500000, -411.500000) " points="305 383 333.5 393.363636 362 383 351.636364 411.5 362 440 333.5 429.636364 305 440 315.363636 411.5"></polygon>
        </g>
        <g id="Group" transform="translate(4096.000000, 0.000000)">
            <rect id="Rectangle" x="0" y="0" width="1024" height="1024"></rect>
            <path d="M371.942581,434.028344 C385.108698,437.599516 409.614397,440 437.670962,440 C465.727527,440 490.233226,437.599516 503.399344,434.028344 C500.354649,467.653807 472.089547,494 437.670962,494 C403.252377,494 374.987276,467.653807 371.942581,434.028344 Z M371.942581,421.971656 C374.987276,388.346193 403.252377,362 437.670962,362 C472.089547,362 500.354649,388.346193 503.399344,421.971656 C490.233226,418.400484 465.727527,416 437.670962,416 C409.614397,416 385.108698,418.400484 371.942581,421.971656 Z" id="Combined-Shape" fill="#4AA810"></path>
            <polygon id="Rectangle" fill="#FBE66A" transform="translate(319.500000, 404.500000) rotate(38.000000) translate(-319.500000, -404.500000) " points="291 376 319.5 386.363636 348 376 337.636364 404.5 348 433 319.5 422.636364 291 433 301.363636 404.5"></polygon>
        </g>
        <g id="Group" transform="translate(5120.000000, 0.000000)">
            <rect id="Rectangle" x="0" y="0" width="1024" height="1024"></rect>
            <path d="M380.444892,460.903531 C394.375912,471.381838 414.848664,478 437.670962,478 C460.493261,478 480.966013,471.381838 494.897033,460.903531 C483.499116,480.684164 462.140079,494 437.670962,494 C413.201845,494 391.842809,480.684164 380.444892,460.903531 Z M380.444892,395.096469 C391.842809,375.315836 413.201845,362 437.670962,362 C462.140079,362 483.499116,375.315836 494.897033,395.096469 C480.966013,384.618162 460.493261,378 437.670962,378 C414.848664,378 394.375912,384.618162 380.444892,395.096469 Z" id="Combined-Shape" fill="#4AA810"></path>
            <polygon id="Rectangle" fillOpacity="0.497131774" fill="#FBE66A" transform="translate(319.500000, 404.500000) rotate(38.000000) translate(-319.500000, -404.500000) " points="291 376 319.5 386.363636 348 376 337.636364 404.5 348 433 319.5 422.636364 291 433 301.363636 404.5"></polygon>
        </g>
        <g id="Group" transform="translate(6144.000000, 0.000000)">
            <rect id="Rectangle" x="0" y="0" width="1024" height="1024"></rect>
            <path d="M386,469.066392 C399.559849,478.333991 417.717406,484 437.670962,484 C457.624518,484 475.782075,478.333991 489.341924,469.066392 C477.250296,484.260209 458.598054,494 437.670962,494 C416.74387,494 398.091628,484.260209 386,469.066392 Z M386,386.933608 C398.091628,371.739791 416.74387,362 437.670962,362 C458.598054,362 477.250296,371.739791 489.341924,386.933608 C475.782075,377.666009 457.624518,372 437.670962,372 C417.717406,372 399.559849,377.666009 386,386.933608 Z" id="Combined-Shape" fill="#4AA810"></path>
            <polygon id="Rectangle" fillOpacity="0.2421875" fill="#FBE66A" transform="translate(319.500000, 404.500000) rotate(38.000000) translate(-319.500000, -404.500000) " points="291 376 319.5 386.363636 348 376 337.636364 404.5 348 433 319.5 422.636364 291 433 301.363636 404.5"></polygon>
        </g>
    </g>
</svg>