<?xml version="1.0" encoding="UTF-8"?>
<svg width="93px" height="75px" viewBox="0 0 93 75" version="1.1" xmlns="http://www.w3.org/2000/svg" xmlns:xlink="http://www.w3.org/1999/xlink">
    <!-- Generator: Sketch 56.2 (81672) - https://sketch.com -->
    <title>BlueBlockError</title>
    <desc>Created with Sketch.</desc>
    <defs>
        <radialGradient cx="50%" cy="50%" fx="50%" fy="50%" r="56.3022823%" gradientTransform="translate(0.500000,0.500000),scale(0.800000,1.000000),rotate(90.000000),translate(-0.500000,-0.500000)" id="radialGradient-1">
            <stop stop-color="#7166FF" offset="0%"></stop>
            <stop stop-color="#5B4EFF" offset="100%"></stop>
        </radialGradient>
        <path d="M514.379248,190.445398 C515.637084,188.318633 517.68059,186.651354 520.244399,185.920534 C522.032052,185.41096 523.926355,185.40974 525.714663,185.917012 C534.403687,188.381743 541.495691,189.614108 546.990675,189.614108 C552.510461,189.614108 559.641718,188.370592 568.384444,185.883561 C572.413445,184.737439 576.568552,186.233144 579.000073,189.340281 L579.000073,188.58904 C585.78557,196.374205 589.997985,207.241172 589.997985,219.264008 C589.997985,231.286843 585.78557,242.15381 579.000073,249.938976 L579.000073,249.641338 C577.741653,251.261624 575.97503,252.510509 573.851044,253.116672 C572.060746,253.627605 570.163363,253.628604 568.372528,253.119558 C559.735592,250.664502 552.608308,249.436974 546.990675,249.436974 C541.398521,249.436974 534.310381,250.653392 525.726254,253.086227 C520.587883,254.542501 515.248716,251.704006 513.540391,246.71013 C508.209155,239.257061 504.997985,229.641005 504.997985,219.143818 C504.997985,208.106997 508.547797,198.044229 514.379248,190.445398 Z" id="path-2"></path>
        <filter x="-8.2%" y="-7.4%" width="116.5%" height="120.6%" filterUnits="objectBoundingBox" id="filter-3">
            <feOffset dx="0" dy="2" in="SourceAlpha" result="shadowOffsetOuter1"></feOffset>
            <feGaussianBlur stdDeviation="2" in="shadowOffsetOuter1" result="shadowBlurOuter1"></feGaussianBlur>
            <feComposite in="shadowBlurOuter1" in2="SourceAlpha" operator="out" result="shadowBlurOuter1"></feComposite>
            <feColorMatrix values="0 0 0 0 0   0 0 0 0 0   0 0 0 0 0  0 0 0 0.5 0" type="matrix" in="shadowBlurOuter1"></feColorMatrix>
        </filter>
    </defs>
    <g id="Style-Guide" stroke="none" stroke-width="1" fill="none" fill-rule="evenodd">
        <g id="CodingBlocks" transform="translate(-550.000000, -279.000000)">
            <g id="Group-10" transform="translate(49.000000, 95.000000)">
                <g id="BlueBlockError">
                    <use fill="black" fill-opacity="1" filter="url(#filter-3)" xlink:href="#path-2"></use>
                    <path stroke="#DC143C" stroke-width="2" d="M580.000073,191.405528 L580.000073,188.58904 L579.000073,188.58904 L578.246225,189.246088 C578.854084,189.9435 579.438941,190.663818 580.000073,191.405528 Z M580.000073,247.122487 C579.438941,247.864197 578.854084,248.584515 578.246225,249.281927 L579.000073,249.938976 L580.000073,249.938976 L580.000073,247.122487 Z" stroke-linejoin="square" fill="url(#radialGradient-1)" fill-rule="evenodd"></path>
                </g>
            </g>
        </g>
    </g>
</svg>