<?xml version="1.0" encoding="UTF-8"?>
<svg width="35px" height="35px" viewBox="0 0 35 35" version="1.1" xmlns="http://www.w3.org/2000/svg" xmlns:xlink="http://www.w3.org/1999/xlink">
    <!-- Generator: Sketch 56.3 (81716) - https://sketch.com -->
    <title>check-circle-solid</title>
    <desc>Created with Sketch.</desc>
    <g id="Style-Guide" stroke="none" stroke-width="1" fill="none" fill-rule="evenodd">
        <g id="CodingBlocks" transform="translate(-690.000000, -1054.000000)" fill="#FFFFFF" fill-rule="nonzero">
            <g id="check-circle-solid" transform="translate(690.000000, 1054.000000)">
                <path d="M35,17.5 C35,27.1650101 27.1650101,35 17.5,35 C7.83498992,35 0,27.1650101 0,17.5 C0,7.83498992 7.83498992,0 17.5,0 C27.1650101,0 35,7.83498992 35,17.5 Z M15.4757863,26.7661089 L28.4596573,13.7822379 C28.9005444,13.3413508 28.9005444,12.6264617 28.4596573,12.1855746 L26.862994,10.5889113 C26.4221069,10.1479536 25.7072177,10.1479536 25.2662601,10.5889113 L14.6774194,21.1776815 L9.73373992,16.234002 C9.29285282,15.7931149 8.57796371,15.7931149 8.13700605,16.234002 L6.54034274,17.8306653 C6.09945565,18.2715524 6.09945565,18.9864415 6.54034274,19.4273286 L13.8790524,26.7660383 C14.3200101,27.206996 15.0348286,27.206996 15.4757863,26.7661089 L15.4757863,26.7661089 Z" id="Shape"></path>
            </g>
        </g>
    </g>
</svg>