<?xml version="1.0" encoding="UTF-8"?>
<svg width="35px" height="35px" viewBox="0 0 35 35" version="1.1" xmlns="http://www.w3.org/2000/svg" xmlns:xlink="http://www.w3.org/1999/xlink">
    <!-- Generator: Sketch 56.3 (81716) - https://sketch.com -->
    <title>clock-solid</title>
    <desc>Created with Sketch.</desc>
    <g id="Style-Guide" stroke="none" stroke-width="1" fill="none" fill-rule="evenodd">
        <g id="CodingBlocks" transform="translate(-690.000000, -748.000000)" fill="#FFFFFF" fill-rule="nonzero">
            <g id="clock-solid" transform="translate(690.000000, 748.000000)">
                <path d="M17.5,0 C7.83266129,0 0,7.83266129 0,17.5 C0,27.1673387 7.83266129,35 17.5,35 C27.1673387,35 35,27.1673387 35,17.5 C35,7.83266129 27.1673387,0 17.5,0 Z M21.5292339,24.7046371 L15.3054435,20.1814516 C15.0866935,20.0191532 14.9596774,19.765121 14.9596774,19.4969758 L14.9596774,7.62096774 C14.9596774,7.15524194 15.3407258,6.77419355 15.8064516,6.77419355 L19.1935484,6.77419355 C19.6592742,6.77419355 20.0403226,7.15524194 20.0403226,7.62096774 L20.0403226,17.3377016 L24.5211694,20.5977823 C24.9022177,20.8729839 24.9798387,21.4022177 24.7046371,21.7832661 L22.7147177,24.5211694 C22.4395161,24.8951613 21.9102823,24.9798387 21.5292339,24.7046371 Z" id="Shape"></path>
            </g>
        </g>
    </g>
</svg>