<?xml version="1.0" encoding="UTF-8"?>
<svg width="85px" height="76px" viewBox="0 0 85 76" version="1.1" xmlns="http://www.w3.org/2000/svg" xmlns:xlink="http://www.w3.org/1999/xlink">
    <!-- Generator: Sketch 56.3 (81716) - https://sketch.com -->
    <title>EmptyBlockTarget</title>
    <desc>Created with Sketch.</desc>
    <defs>
        <path d="M929.001927,532.820453 L929.001927,532.11706 C935.787523,539.902226 940,550.769193 940,562.792028 C940,574.814864 935.787523,585.681831 929.001927,593.466996 L929.001927,593.161316 C927.744528,594.771905 925.983705,596.013036 923.868449,596.616717 C922.078148,597.127658 920.180759,597.128663 918.389917,596.61962 C909.752757,594.164523 902.625296,592.936974 897.007533,592.936974 C891.415249,592.936974 884.32693,594.153413 875.742575,596.586291 C870.429002,598.092199 864.900718,595.005479 863.394807,589.691906 C862.888457,587.905262 862.889601,586.012915 863.398112,584.226885 C865.807897,575.763051 867.012789,568.695937 867.012789,563.025541 C867.012789,557.345003 865.803583,550.262744 863.385169,541.778766 C861.871151,536.467492 864.949439,530.934503 870.260714,529.42049 C872.04837,528.910907 873.942678,528.909681 875.730993,529.41695 C884.420243,531.881722 891.512423,533.114108 897.007533,533.114108 C902.527447,533.114108 909.658881,531.870571 918.401836,529.383498 C922.422276,528.239823 926.568279,529.726756 929.001927,532.820453 Z" id="path-1"></path>
        <filter x="-9.1%" y="-7.4%" width="118.2%" height="120.6%" filterUnits="objectBoundingBox" id="filter-2">
            <feOffset dx="0" dy="2" in="SourceAlpha" result="shadowOffsetOuter1"></feOffset>
            <feGaussianBlur stdDeviation="2" in="shadowOffsetOuter1" result="shadowBlurOuter1"></feGaussianBlur>
            <feComposite in="shadowBlurOuter1" in2="SourceAlpha" operator="out" result="shadowBlurOuter1"></feComposite>
            <feColorMatrix values="0 0 0 0 0   0 0 0 0 0   0 0 0 0 0  0 0 0 0.5 0" type="matrix" in="shadowBlurOuter1"></feColorMatrix>
        </filter>
    </defs>
    <g id="Style-Guide" stroke="none" stroke-width="1" fill="none" fill-rule="evenodd">
        <g id="Cards" transform="translate(-859.000000, -527.000000)">
            <g id="EmptyBlockTarget">
                <use fill="black" fill-opacity="1" filter="url(#filter-2)" xlink:href="#path-1"></use>
                <use fill-opacity="0.6" fill="#FFFFFF" fill-rule="evenodd" xlink:href="#path-1"></use>
            </g>
        </g>
    </g>
</svg>