<?xml version="1.0" encoding="UTF-8"?>
<svg width="76px" height="77px" viewBox="0 0 76 77" version="1.1" xmlns="http://www.w3.org/2000/svg" xmlns:xlink="http://www.w3.org/1999/xlink">
    <!-- Generator: Sketch 56.2 (81672) - https://sketch.com -->
    <title>GreenBlockError</title>
    <desc>Created with Sketch.</desc>
    <defs>
        <radialGradient cx="51.6223145%" cy="50%" fx="51.6223145%" fy="50%" r="56.3022823%" id="radialGradient-1">
            <stop stop-color="#7CD147" offset="0%"></stop>
            <stop stop-color="#4AA810" offset="100%"></stop>
        </radialGradient>
        <path d="M523.711452,69.7901127 C532.405081,72.2633709 539.500592,73.5 544.997985,73.5 C550.520188,73.5 557.654966,72.2521839 566.402319,69.7565517 L566.40232,69.756555 C571.713247,68.24134 577.246928,71.3183725 578.762144,76.6292996 C579.273682,78.4222746 579.273761,80.3225546 578.762374,82.1155724 C576.252781,90.9146524 574.997985,98.0427949 574.997985,103.5 C574.997985,108.947708 576.248418,116.060541 578.749282,124.838502 L578.749282,124.838502 C580.262539,130.149989 577.183465,135.682537 571.871978,137.195794 C570.0804,137.706219 568.181863,137.70606 566.390371,137.195333 C557.748884,134.731778 550.618089,133.5 544.997985,133.5 C539.403369,133.5 532.311731,134.720631 523.723072,137.161893 L523.723072,137.161894 C518.410661,138.671907 512.879994,135.589454 511.369981,130.277043 C510.861928,128.489652 510.861941,126.596055 511.370018,124.808671 C513.788663,116.300022 514.997985,109.197132 514.997985,103.5 C514.997985,97.7926939 513.78434,90.6746037 511.357048,82.1457295 L511.357047,82.1457298 C509.845292,76.833814 512.925931,71.302136 518.237847,69.7903811 C520.02685,69.2812365 521.9224,69.2811435 523.711452,69.7901127 Z" id="path-2"></path>
        <filter x="-1.3%" y="1.1%" width="102.7%" height="102.8%" filterUnits="objectBoundingBox" id="filter-3">
            <feOffset dx="0" dy="2" in="SourceAlpha" result="shadowOffsetOuter1"></feOffset>
            <feGaussianBlur stdDeviation="2" in="shadowOffsetOuter1" result="shadowBlurOuter1"></feGaussianBlur>
            <feComposite in="shadowBlurOuter1" in2="SourceAlpha" operator="out" result="shadowBlurOuter1"></feComposite>
            <feColorMatrix values="0 0 0 0 0   0 0 0 0 0   0 0 0 0 0  0 0 0 0.5 0" type="matrix" in="shadowBlurOuter1"></feColorMatrix>
        </filter>
    </defs>
    <g id="Style-Guide" stroke="none" stroke-width="1" fill="none" fill-rule="evenodd">
        <g id="CodingBlocks" transform="translate(-556.000000, -162.000000)">
            <g id="Group-10" transform="translate(49.000000, 95.000000)">
                <g id="GreenBlockError">
                    <use fill="black" fill-opacity="1" filter="url(#filter-3)" xlink:href="#path-2"></use>
                    <path stroke="#DC143C" stroke-width="2" d="M523.437819,70.7519469 C521.827672,70.2938746 520.121677,70.2939583 518.511574,70.7521885 C513.73085,72.1127679 510.958275,77.0912782 512.318856,81.8720021 C514.76947,90.4828286 515.997985,97.6881281 515.997985,103.5 C515.997985,109.301558 514.773829,116.491575 512.331911,125.082096 C511.874642,126.690742 511.87463,128.394979 512.331878,130.003631 C513.690889,134.784801 518.66849,137.559008 523.44966,136.199996 C532.119984,133.735521 539.298131,132.5 544.997985,132.5 C550.723678,132.5 557.94118,133.746755 566.664532,136.233649 C568.276875,136.693303 569.985558,136.693447 571.597978,136.234064 C576.378316,134.872133 579.149483,129.89284 577.787552,125.112501 C575.263452,116.252983 573.997985,109.054631 573.997985,103.5 C573.997985,97.9357389 575.267847,90.7220109 577.800722,81.841299 C578.260971,80.2275831 578.260899,78.5173311 577.800515,76.9036537 C576.436821,72.1238198 571.456508,69.3544899 566.676673,70.7181805 C557.847579,73.2371334 550.626746,74.5 544.997985,74.5 C539.39438,74.5 532.212995,73.2484046 523.437819,70.7519469 Z" stroke-linejoin="square" fill="url(#radialGradient-1)" fill-rule="evenodd"></path>
                </g>
            </g>
        </g>
    </g>
</svg>