<?xml version="1.0" encoding="UTF-8"?>
<svg width="80px" height="77px" viewBox="0 0 80 77" preserveAspectRatio="xMidYMid meet" version="1.1" xmlns="http://www.w3.org/2000/svg" xmlns:xlink="http://www.w3.org/1999/xlink">
    <!-- Generator: Sketch 56.2 (81672) - https://sketch.com -->
    <title>GreenBlock</title>
    <desc>Created with Sketch.</desc>
    <defs>
        <radialGradient cx="51.6223145%" cy="50%" fx="51.6223145%" fy="50%" r="56.3022823%" id="radialGradient-1">
            <stop stop-color="#7CD147" offset="0%"></stop>
            <stop stop-color="#4AA810" offset="100%"></stop>
        </radialGradient>
        <path d="M274.711452,69.7901127 C283.405081,72.2633709 290.500592,73.5 295.997985,73.5 C301.520188,73.5 308.654966,72.2521839 317.402319,69.7565517 L317.40232,69.756555 C322.713247,68.24134 328.246928,71.3183725 329.762144,76.6292996 C330.273682,78.4222746 330.273761,80.3225546 329.762374,82.1155724 C327.252781,90.9146524 325.997985,98.0427949 325.997985,103.5 C325.997985,108.947708 327.248418,116.060541 329.749282,124.838502 L329.749282,124.838502 C331.262539,130.149989 328.183465,135.682537 322.871978,137.195794 C321.0804,137.706219 319.181863,137.70606 317.390371,137.195333 C308.748884,134.731778 301.618089,133.5 295.997985,133.5 C290.403369,133.5 283.311731,134.720631 274.723072,137.161893 L274.723072,137.161894 C269.410661,138.671907 263.879994,135.589454 262.369981,130.277043 C261.861928,128.489652 261.861941,126.596055 262.370018,124.808671 C264.788663,116.300022 265.997985,109.197132 265.997985,103.5 C265.997985,97.7926939 264.78434,90.6746037 262.357048,82.1457295 L262.357047,82.1457298 C260.845292,76.833814 263.925931,71.302136 269.237847,69.7903811 C271.02685,69.2812365 272.9224,69.2811435 274.711452,69.7901127 Z" id="path-2"></path>
        <filter x="-1.3%" y="1.1%" width="102.7%" height="102.8%" filterUnits="objectBoundingBox" id="filter-3">
            <feOffset dx="0" dy="2" in="SourceAlpha" result="shadowOffsetOuter1"></feOffset>
            <feGaussianBlur stdDeviation="2" in="shadowOffsetOuter1" result="shadowBlurOuter1"></feGaussianBlur>
            <feColorMatrix values="0 0 0 0 0   0 0 0 0 0   0 0 0 0 0  0 0 0 0.5 0" type="matrix" in="shadowBlurOuter1"></feColorMatrix>
        </filter>
    </defs>
    <g id="Style-Guide" stroke="none" stroke-width="1" fill="none" fill-rule="evenodd">
        <g id="CodingBlocks" transform="translate(-307.000000, -162.000000)">
            <g id="Group-10" transform="translate(49.000000, 95.000000)">
                <g id="GreenBlock">
                    <use fill="black" fill-opacity="1" filter="url(#filter-3)" xlink:href="#path-2"></use>
                    <use fill="url(#radialGradient-1)" fill-rule="evenodd" xlink:href="#path-2"></use>
                </g>
            </g>
        </g>
    </g>
</svg>