<?xml version="1.0" encoding="UTF-8"?>
<svg width="37px" height="46px" viewBox="0 0 37 46" version="1.1" xmlns="http://www.w3.org/2000/svg" xmlns:xlink="http://www.w3.org/1999/xlink">
    <!-- Generator: Sketch 57.1 (83088) - https://sketch.com -->
    <title>LED</title>
    <desc>Created with Sketch.</desc>
    <g id="Canvas" stroke="none" stroke-width="1" fill="none" fill-rule="evenodd">
        <g transform="translate(-53.000000, -169.000000)" fill="#FFFFFF" id="ToolBar">
            <g>
                <g id="LEDBlock-Copy" transform="translate(29.000000, 158.000000)">
                    <g id="LED" transform="translate(24.000000, 11.000000)">
                        <path d="M18.5,11.0241026 C23.8362468,11.0241026 28.1792543,15.3640861 28.324942,20.7741055 L28.3287179,21.0548716 L28.3287179,31.0856406 L8.67128205,31.0856406 L8.67128205,21.0548716 L8.67505805,20.7741055 C8.82074568,15.3640861 13.1637532,11.0241026 18.5,11.0241026 Z M14.1252416,15.0823934 C12.8385023,15.8397284 11.9508287,16.7783914 11.462221,17.8983825 C10.9736132,19.0183736 10.8840713,20.3196928 11.1935951,21.80234 L11.1935951,21.80234 L13.58799,22.8903083 C13.2784661,21.4076611 13.3680081,20.106342 13.8566158,18.9863509 C14.3452235,17.8663598 15.2328971,16.9276968 16.5196365,16.1703618 L16.5196365,16.1703618 Z" id="Combined-Shape"></path>
                        <rect id="Rectangle" x="5.86307692" y="32.4897436" width="25.2738462" height="2.80820513"></rect>
                        <rect id="Rectangle" x="21.3082051" y="35.2979487" width="2.80820513" height="8.42461538"></rect>
                        <rect id="Rectangle-Copy-2" x="12.8835897" y="35.2979487" width="2.80820513" height="10.5307692"></rect>
                        <polygon id="Rectangle" transform="translate(11.840000, 4.107949) rotate(-30.000000) translate(-11.840000, -4.107949) " points="10.4358974 0.948717949 13.2441026 0.948717949 13.2441026 7.26717949 10.4358974 7.26717949"></polygon>
                        <polygon id="Rectangle-Copy-5" transform="translate(25.122051, 4.107949) scale(-1, 1) rotate(-30.000000) translate(-25.122051, -4.107949) " points="23.7179487 0.948717949 26.5261538 0.948717949 26.5261538 7.26717949 23.7179487 7.26717949"></polygon>
                        <polygon id="Rectangle-Copy-7" transform="translate(4.250256, 12.646410) rotate(-60.000000) translate(-4.250256, -12.646410) " points="2.84615385 9.48717949 5.65435897 9.48717949 5.65435897 15.805641 2.84615385 15.805641"></polygon>
                        <polygon id="Rectangle-Copy-8" transform="translate(32.711795, 12.646410) scale(-1, 1) rotate(-60.000000) translate(-32.711795, -12.646410) " points="31.3076923 9.48717949 34.1158974 9.48717949 34.1158974 15.805641 31.3076923 15.805641"></polygon>
                    </g>
                </g>
            </g>
        </g>
    </g>
</svg>