<?xml version="1.0" encoding="UTF-8"?>
<svg width="35px" height="35px" viewBox="0 0 35 35" version="1.1" xmlns="http://www.w3.org/2000/svg" xmlns:xlink="http://www.w3.org/1999/xlink">
    <!-- Generator: Sketch 56.2 (81672) - https://sketch.com -->
    <title>NumberIcon8</title>
    <desc>Created with Sketch.</desc>
    <g id="Style-Guide" stroke="none" stroke-width="1" fill="none" fill-rule="evenodd">
        <g id="CodingBlocks" transform="translate(-813.000000, -1301.000000)" fill="#FFFFFF">
            <g id="Group-6" transform="translate(787.000000, 243.000000)">
                <g id="NumberBlock" transform="translate(3.000000, 1035.000000)">
                    <path d="M40.5,58 C30.8350169,58 23,50.1649831 23,40.5 C23,30.8350169 30.8350169,23 40.5,23 C50.1649831,23 58,30.8350169 58,40.5 C58,50.1649831 50.1649831,58 40.5,58 Z M44.05,40.14 C45.0900052,39.7799982 45.909997,39.1700043 46.51,38.31 C47.110003,37.4499957 47.41,36.4400058 47.41,35.28 C47.41,33.5199912 46.7500066,32.1300051 45.43,31.11 C44.1099934,30.0899949 42.3000115,29.58 40,29.58 C37.6999885,29.58 35.8900066,30.0899949 34.57,31.11 C33.2499934,32.1300051 32.59,33.5199912 32.59,35.28 C32.59,36.4200057 32.889997,37.4149958 33.49,38.265 C34.090003,39.1150042 34.9199947,39.739998 35.98,40.14 C34.7399938,40.4600016 33.7800034,41.0749955 33.1,41.985 C32.4199966,42.8950045 32.08,43.9999935 32.08,45.3 C32.08,47.1600093 32.779993,48.6149948 34.18,49.665 C35.580007,50.7150053 37.5199876,51.24 40,51.24 C42.4800124,51.24 44.419993,50.7150053 45.82,49.665 C47.220007,48.6149948 47.92,47.1600093 47.92,45.3 C47.92,43.9999935 47.5850033,42.9000045 46.915,42 C46.2449966,41.0999955 45.2900062,40.4800017 44.05,40.14 Z M40,32.61 C42.5000125,32.61 43.75,33.6299898 43.75,35.67 C43.75,36.6900051 43.4350032,37.4649974 42.805,37.995 C42.1749968,38.5250026 41.2400062,38.79 40,38.79 C38.7599938,38.79 37.8250032,38.5250026 37.195,37.995 C36.5649968,37.4649974 36.25,36.6900051 36.25,35.67 C36.25,33.6299898 37.4999875,32.61 40,32.61 Z M40,48.21 C37.1399857,48.21 35.71,47.1400107 35.71,45 C35.71,42.8599893 37.1399857,41.79 40,41.79 C42.8600143,41.79 44.29,42.8599893 44.29,45 C44.29,47.1400107 42.8600143,48.21 40,48.21 Z" id="NumberIcon8"></path>
                </g>
            </g>
        </g>
    </g>
</svg>