<?xml version="1.0" encoding="UTF-8"?>
<svg width="35px" height="35px" viewBox="0 0 35 35" version="1.1" xmlns="http://www.w3.org/2000/svg" xmlns:xlink="http://www.w3.org/1999/xlink">
    <!-- Generator: Sketch 56.2 (81672) - https://sketch.com -->
    <title>NumberIcon3</title>
    <desc>Created with Sketch.</desc>
    <g id="Style-Guide" stroke="none" stroke-width="1" fill="none" fill-rule="evenodd">
        <g id="CodingBlocks" transform="translate(-813.000000, -1301.000000)" fill="#FFFFFF">
            <g id="Group-6" transform="translate(787.000000, 243.000000)">
                <g id="NumberBlock" transform="translate(3.000000, 1035.000000)">
                    <path d="M40.5,58 C30.8350169,58 23,50.1649831 23,40.5 C23,30.8350169 30.8350169,23 40.5,23 C50.1649831,23 58,30.8350169 58,40.5 C58,50.1649831 50.1649831,58 40.5,58 Z M44.24,40.14 C45.3000053,39.739998 46.124997,39.1050044 46.715,38.235 C47.305003,37.3649956 47.6099999,36.3500058 47.63,35.19 C47.63,33.4899915 47.0150061,32.1300051 45.785,31.11 C44.5549939,30.0899949 42.9000104,29.58 40.82,29.58 C39.5999939,29.58 38.4050058,29.784998 37.235,30.195 C36.0649942,30.6050021 35.0600042,31.1599965 34.22,31.86 C33.9799988,32.0800011 33.8050006,32.294999 33.695,32.505 C33.5849994,32.715001 33.53,32.9699985 33.53,33.27 C33.53,33.7100022 33.6549988,34.0849985 33.905,34.395 C34.1550012,34.7050015 34.4499983,34.86 34.79,34.86 C34.990001,34.86 35.1699992,34.8250003 35.33,34.755 C35.4900008,34.6849997 35.7099986,34.5700008 35.99,34.41 C37.6500083,33.2499942 39.2099927,32.67 40.67,32.67 C41.6900051,32.67 42.4899971,32.9299974 43.07,33.45 C43.6500029,33.9700026 43.94,34.7099952 43.94,35.67 C43.94,37.7300103 42.5700137,38.76 39.83,38.76 L38.63,38.76 C38.1699977,38.76 37.8150013,38.9099985 37.565,39.21 C37.3149988,39.5100015 37.19,39.8699979 37.19,40.29 C37.19,40.690002 37.3149988,41.0449985 37.565,41.355 C37.8150013,41.6650015 38.1699977,41.82 38.63,41.82 L40.34,41.82 C41.740007,41.82 42.7749966,42.0749974 43.445,42.585 C44.1150033,43.0950026 44.45,43.8799947 44.45,44.94 C44.45,46.0200054 44.1300032,46.8249974 43.49,47.355 C42.8499968,47.8850027 41.8700066,48.15 40.55,48.15 C39.6499955,48.15 38.8200038,48.0000015 38.06,47.7 C37.2999962,47.3999985 36.5000042,46.9700028 35.66,46.41 C35.3799986,46.2499992 35.1600008,46.1350003 35,46.065 C34.8399992,45.9949996 34.660001,45.96 34.46,45.96 C34.1199983,45.96 33.8250012,46.1149985 33.575,46.425 C33.3249987,46.7350015 33.2,47.1099978 33.2,47.55 C33.2,48.0900027 33.4299977,48.559998 33.89,48.96 C34.7300042,49.6800036 35.749994,50.239998 36.95,50.64 C38.150006,51.040002 39.3999935,51.24 40.7,51.24 C42.9800114,51.24 44.7899933,50.7000054 46.13,49.62 C47.4700067,48.5399946 48.14,47.0900091 48.14,45.27 C48.14,43.9499934 47.8050033,42.8450044 47.135,41.955 C46.4649967,41.0649955 45.5000063,40.4600016 44.24,40.14 Z" id="NumberIcon3"></path>
                </g>
            </g>
        </g>
    </g>
</svg>