<?xml version="1.0" encoding="UTF-8"?>
<svg width="35px" height="35px" viewBox="0 0 35 35" version="1.1" xmlns="http://www.w3.org/2000/svg" xmlns:xlink="http://www.w3.org/1999/xlink">
    <!-- Generator: Sketch 56.2 (81672) - https://sketch.com -->
    <title>NumberIcon2</title>
    <desc>Created with Sketch.</desc>
    <g id="Style-Guide" stroke="none" stroke-width="1" fill="none" fill-rule="evenodd">
        <g id="CodingBlocks" transform="translate(-813.000000, -1301.000000)" fill="#FFFFFF">
            <g id="Group-6" transform="translate(787.000000, 243.000000)">
                <g id="NumberBlock" transform="translate(3.000000, 1035.000000)">
                    <path d="M40.5,58 C30.8350169,58 23,50.1649831 23,40.5 C23,30.8350169 30.8350169,23 40.5,23 C50.1649831,23 58,30.8350169 58,40.5 C58,50.1649831 50.1649831,58 40.5,58 Z M46.94,47.88 L39.02,47.88 L44.21,42.36 C45.4500062,41.0399934 46.3299974,39.8450054 46.85,38.775 C47.3700026,37.7049947 47.63,36.5600061 47.63,35.34 C47.63,33.5799912 47.0150061,32.1800052 45.785,31.14 C44.5549939,30.0999948 42.9100103,29.58 40.85,29.58 C39.6699941,29.58 38.4900059,29.784998 37.31,30.195 C36.1299941,30.6050021 35.1000044,31.1599965 34.22,31.86 C33.9799988,32.060001 33.8050006,32.2699989 33.695,32.49 C33.5849994,32.7100011 33.53,32.9699985 33.53,33.27 C33.53,33.7100022 33.6549988,34.0899984 33.905,34.41 C34.1550012,34.7300016 34.4499983,34.89 34.79,34.89 C34.990001,34.89 35.189999,34.8450005 35.39,34.755 C35.590001,34.6649996 35.789999,34.5500007 35.99,34.41 C36.7700039,33.8699973 37.5449962,33.4450016 38.315,33.135 C39.0850038,32.8249985 39.8799959,32.67 40.7,32.67 C41.700005,32.67 42.4699973,32.9199975 43.01,33.42 C43.5500027,33.9200025 43.82,34.6399953 43.82,35.58 C43.82,36.3400038 43.6250019,37.1049961 43.235,37.875 C42.8449981,38.6450039 42.2300042,39.4899954 41.39,40.41 L34.55,47.76 C34.0899977,48.2400024 33.86,48.779997 33.86,49.38 C33.86,49.8400023 34.0099985,50.2249985 34.31,50.535 C34.6100015,50.8450015 35.0199974,51 35.54,51 L46.94,51 C48.140006,51 48.74,50.4700053 48.74,49.41 C48.74,48.3899949 48.140006,47.88 46.94,47.88 Z" id="NumberIcon2"></path>
                </g>
            </g>
        </g>
    </g>
</svg>