<?xml version="1.0" encoding="UTF-8"?>
<svg width="35px" height="35px" viewBox="0 0 35 35" version="1.1" xmlns="http://www.w3.org/2000/svg" xmlns:xlink="http://www.w3.org/1999/xlink">
    <!-- Generator: Sketch 56.2 (81672) - https://sketch.com -->
    <title>NumberIcon5</title>
    <desc>Created with Sketch.</desc>
    <g id="Style-Guide" stroke="none" stroke-width="1" fill="none" fill-rule="evenodd">
        <g id="CodingBlocks" transform="translate(-813.000000, -1301.000000)" fill="#FFFFFF">
            <g id="Group-6" transform="translate(787.000000, 243.000000)">
                <g id="NumberBlock" transform="translate(3.000000, 1035.000000)">
                    <path d="M40.5,58 C30.8350169,58 23,50.1649831 23,40.5 C23,30.8350169 30.8350169,23 40.5,23 C50.1649831,23 58,30.8350169 58,40.5 C58,50.1649831 50.1649831,58 40.5,58 Z M41.11,37.47 C39.6299926,37.47 38.3800051,37.8299964 37.36,38.55 L37.36,32.85 L45.4,32.85 C46.600006,32.85 47.2,32.350005 47.2,31.35 C47.2,30.349995 46.600006,29.85 45.4,29.85 L35.41,29.85 C34.8299971,29.85 34.3800016,30.0099984 34.06,30.33 C33.7399984,30.6500016 33.58,31.0899972 33.58,31.65 L33.58,41.01 C33.58,41.410002 33.7199986,41.7299988 34,41.97 C34.2800014,42.2100012 34.619998,42.33 35.02,42.33 C35.420002,42.33 35.8099981,42.2000013 36.19,41.94 C36.8300032,41.4199974 37.454997,41.0500011 38.065,40.83 C38.6750031,40.6099989 39.3699961,40.5 40.15,40.5 C41.3900062,40.5 42.3649964,40.8449966 43.075,41.535 C43.7850035,42.2250035 44.14,43.1599941 44.14,44.34 C44.14,45.5600061 43.7900035,46.4999967 43.09,47.16 C42.3899965,47.8200033 41.3800066,48.15 40.06,48.15 C39.1999957,48.15 38.3900038,48.0000015 37.63,47.7 C36.8699962,47.3999985 36.090004,46.9700028 35.29,46.41 C35.0499988,46.2499992 34.8400009,46.1350003 34.66,46.065 C34.4799991,45.9949996 34.290001,45.96 34.09,45.96 C33.7499983,45.96 33.4550013,46.1149985 33.205,46.425 C32.9549988,46.7350015 32.83,47.1099978 32.83,47.55 C32.83,48.0900027 33.0599977,48.559998 33.52,48.96 C34.3600042,49.6600035 35.374994,50.2149979 36.565,50.625 C37.7550059,51.0350021 38.9699938,51.24 40.21,51.24 C41.7100075,51.24 43.0349942,50.945003 44.185,50.355 C45.3350058,49.7649971 46.2249968,48.9400053 46.855,47.88 C47.4850031,46.8199947 47.8,45.6000069 47.8,44.22 C47.8,42.8999934 47.5200028,41.7300051 46.96,40.71 C46.3999972,39.6899949 45.6150051,38.8950028 44.605,38.325 C43.594995,37.7549972 42.4300066,37.47 41.11,37.47 Z" id="NumberIcon5"></path>
                </g>
            </g>
        </g>
    </g>
</svg>