<?xml version="1.0" encoding="UTF-8"?>
<svg width="35px" height="35px" viewBox="0 0 35 35" version="1.1" xmlns="http://www.w3.org/2000/svg" xmlns:xlink="http://www.w3.org/1999/xlink">
    <!-- Generator: Sketch 56.3 (81716) - https://sketch.com -->
    <title>palette-solid</title>
    <desc>Created with Sketch.</desc>
    <g id="Style-Guide" stroke="none" stroke-width="1" fill="none" fill-rule="evenodd">
        <g id="CodingBlocks" transform="translate(-690.000000, -886.000000)" fill="#FFFFFF" fill-rule="nonzero">
            <g id="palette-solid" transform="translate(690.000000, 886.000000)">
                <path d="M13.9658203,0.41015625 C7.17089844,1.73632813 1.6953125,7.19824219 0.35546875,13.9726563 C-2.17382813,26.7558594 9.35839844,36.2851562 18.046875,34.9384766 C20.8632812,34.5009766 22.2441406,31.2060547 20.9521484,28.6699219 C19.3730469,25.5664063 21.6289063,21.9433594 25.1152344,21.9433594 L30.5634766,21.9433594 C33.0107422,21.9433594 34.9931641,19.9199219 35,17.4794922 C34.9658203,6.70605469 25.1630859,-1.77050781 13.9658203,0.41015625 Z M6.5625,21.9433594 C5.35253906,21.9433594 4.375,20.9658203 4.375,19.7558594 C4.375,18.5458984 5.35253906,17.5683594 6.5625,17.5683594 C7.77246094,17.5683594 8.75,18.5458984 8.75,19.7558594 C8.75,20.9658203 7.77246094,21.9433594 6.5625,21.9433594 Z M8.75,13.1933594 C7.54003906,13.1933594 6.5625,12.2158203 6.5625,11.0058594 C6.5625,9.79589844 7.54003906,8.81835938 8.75,8.81835938 C9.95996094,8.81835938 10.9375,9.79589844 10.9375,11.0058594 C10.9375,12.2158203 9.95996094,13.1933594 8.75,13.1933594 Z M17.5,8.81835938 C16.2900391,8.81835938 15.3125,7.84082031 15.3125,6.63085938 C15.3125,5.42089844 16.2900391,4.44335938 17.5,4.44335938 C18.7099609,4.44335938 19.6875,5.42089844 19.6875,6.63085938 C19.6875,7.84082031 18.7099609,8.81835938 17.5,8.81835938 Z M26.25,13.1933594 C25.0400391,13.1933594 24.0625,12.2158203 24.0625,11.0058594 C24.0625,9.79589844 25.0400391,8.81835938 26.25,8.81835938 C27.4599609,8.81835938 28.4375,9.79589844 28.4375,11.0058594 C28.4375,12.2158203 27.4599609,13.1933594 26.25,13.1933594 Z" id="Shape"></path>
            </g>
        </g>
    </g>
</svg>