<?xml version="1.0" encoding="UTF-8"?>
<svg width="35px" height="35px" viewBox="0 0 35 35" version="1.1" xmlns="http://www.w3.org/2000/svg" xmlns:xlink="http://www.w3.org/1999/xlink">
    <!-- Generator: Sketch 56.2 (81672) - https://sketch.com -->
    <title>RepeatIcon</title>
    <desc>Created with Sketch.</desc>
    <g id="Style-Guide" stroke="none" stroke-width="1" fill="none" fill-rule="evenodd">
        <g id="CodingBlocks" transform="translate(-354.000000, -643.000000)" fill="#FFFFFF">
            <g id="Group-20" transform="translate(49.000000, 547.000000)">
                <g id="Group-16" transform="translate(117.000000, 41.000000)">
                    <g id="Group-17" transform="translate(160.000000, 36.000000)">
                        <g id="RepeatIcon" transform="translate(28.000000, 19.000000)">
                            <path d="M25.1267688,28.6007164 C24.0091022,24.113564 19.9561085,20.7929454 15.1199854,20.7929454 C11.692488,20.7929454 8.65826599,22.4614328 6.78361378,25.0311975 L12.5418665,25.0311975 C12.9301636,25.0311975 13.2449898,25.3460237 13.2449898,25.7343208 L13.2449898,28.5468141 C13.2449898,28.9351112 12.9301636,29.2499374 12.5418665,29.2499374 L0.803632314,29.2499374 C0.415335205,29.2499374 0.10050899,28.9351112 0.10050899,28.5468141 L0.10050899,16.8085799 C0.10050899,16.4202828 0.415335205,16.1054566 0.803632314,16.1054566 L3.61612561,16.1054566 C4.00442272,16.1054566 4.31924893,16.4202828 4.31924893,16.8085799 L4.31924893,21.3854618 C7.00127989,18.4069724 10.8969539,16.5431348 15.2279029,16.574606 C21.7291009,16.6218143 27.1771891,20.8883018 29,26.7742751 L25.1267688,28.6007164 Z" id="Combined-Shape-Copy" transform="translate(14.550254, 22.677697) scale(-1, -1) translate(-14.550254, -22.677697) "></path>
                            <path d="M25.0262598,12.4952599 C23.9085932,8.00810738 19.8555995,4.68748882 15.0194764,4.68748882 C11.591979,4.68748882 8.557757,6.35597621 6.68310479,8.9257409 L12.4413575,8.9257409 C12.8296546,8.9257409 13.1444808,9.24056711 13.1444808,9.62886422 L13.1444808,12.4413575 C13.1444808,12.8296546 12.8296546,13.1444808 12.4413575,13.1444808 L0.703123324,13.1444808 C0.314826215,13.1444808 1.56319402e-13,12.8296546 1.56319402e-13,12.4413575 L1.56319402e-13,0.703123324 C1.56319402e-13,0.314826215 0.314826215,0 0.703123324,0 L3.51561662,0 C3.90391373,0 4.21873994,0.314826215 4.21873994,0.703123324 L4.21873994,5.28000526 C6.9007709,2.30151581 10.7964449,0.437678247 15.1273939,0.469149425 C21.6285919,0.516357679 27.0766801,4.78284522 28.899491,10.6688185 L25.0262598,12.4952599 Z" id="Combined-Shape-Copy-2"></path>
                        </g>
                    </g>
                </g>
            </g>
        </g>
    </g>
</svg>