<?xml version="1.0" encoding="UTF-8"?>
<svg width="85px" height="76px" viewBox="0 0 85 76" version="1.1" xmlns="http://www.w3.org/2000/svg" xmlns:xlink="http://www.w3.org/1999/xlink">
    <!-- Generator: Sketch 56.3 (81716) - https://sketch.com -->
    <title>StartBlockTarget</title>
    <desc>Created with Sketch.</desc>
    <defs>
        <path d="M66.0019272,3.82045301 L66.0019272,3.1170603 C72.7875232,10.9022256 77,21.7691929 77,33.7920284 C77,45.8148638 72.7875232,56.6818311 66.0019272,64.4669965 L66.0019272,64.1613156 C64.7445275,65.7719051 62.9837055,67.013036 60.8684492,67.616717 C59.078148,68.1276578 57.1807585,68.1286631 55.389917,67.6196196 C46.7527575,65.1645226 39.6252963,63.9369741 34.0075335,63.9369741 C28.4152494,63.9369741 21.32693,65.153413 12.7425753,67.5862909 C7.42900159,69.0921985 1.90071776,66.0054788 0.394806807,60.691906 C-0.111543133,58.9052617 -0.110398659,57.0129151 0.398112003,55.2268846 C2.80789694,46.7630512 4.01278941,39.6959367 4.01278941,34.0255411 C4.01278941,28.3450026 2.80358263,21.2627441 0.385169066,12.7787656 C-1.12884902,7.46749245 1.94943918,1.93450331 7.26071365,0.420489785 C9.04836981,-0.0890932967 10.9426783,-0.0903191638 12.7309925,0.416949794 C21.4202431,2.88172197 28.5124234,4.11410806 34.0075335,4.11410806 C39.5274471,4.11410806 46.6588812,2.87057147 55.4018356,0.383498296 C59.4222755,-0.760177322 63.5682795,0.726755612 66.0019272,3.82045301 Z" id="path-1"></path>
        <filter x="-9.1%" y="-7.4%" width="118.2%" height="120.6%" filterUnits="objectBoundingBox" id="filter-2">
            <feOffset dx="0" dy="2" in="SourceAlpha" result="shadowOffsetOuter1"></feOffset>
            <feGaussianBlur stdDeviation="2" in="shadowOffsetOuter1" result="shadowBlurOuter1"></feGaussianBlur>
            <feComposite in="shadowBlurOuter1" in2="SourceAlpha" operator="out" result="shadowBlurOuter1"></feComposite>
            <feColorMatrix values="0 0 0 0 0   0 0 0 0 0   0 0 0 0 0  0 0 0 0.5 0" type="matrix" in="shadowBlurOuter1"></feColorMatrix>
        </filter>
    </defs>
    <g id="Style-Guide" stroke="none" stroke-width="1" fill="none" fill-rule="evenodd">
        <g id="Cards" transform="translate(-759.000000, -527.000000)">
            <g id="StartBlockTarget" transform="translate(763.000000, 529.000000)">
                <g id="Combined-Shape-Copy-26">
                    <use fill="black" fill-opacity="1" filter="url(#filter-2)" xlink:href="#path-1"></use>
                    <use fill-opacity="0.6" fill="#FFFFFF" fill-rule="evenodd" xlink:href="#path-1"></use>
                </g>
                <g id="play-circle-light" transform="translate(21.000000, 17.000000)" fill="#E3E5E8" fill-rule="nonzero">
                    <path d="M17.5,35 C27.1673387,35 35,27.1673387 35,17.5 C35,7.83266129 27.1673387,0 17.5,0 C7.83266129,0 0,7.83266129 0,17.5 C0,27.1673387 7.83266129,35 17.5,35 Z M2.25806452,17.5 C2.25806452,9.12399194 9.03931452,2.25806452 17.5,2.25806452 C25.8760081,2.25806452 32.7419355,9.03931452 32.7419355,17.5 C32.7419355,25.8760081 25.9606855,32.7419355 17.5,32.7419355 C9.12399194,32.7419355 2.25806452,25.9606855 2.25806452,17.5 Z M25.6643145,16.2298387 L13.2449597,8.67943548 C12.1300403,8.05846774 10.7258065,8.85584677 10.7258065,10.1612903 L10.7258065,24.8387097 C10.7258065,26.1370968 12.1229839,26.9415323 13.2449597,26.3205645 L25.6643145,19.1935484 C26.8215726,18.5514113 26.8215726,16.8790323 25.6643145,16.2298387 Z M12.983871,23.1310484 L12.983871,11.9183468 C12.983871,11.5866935 13.34375,11.3820565 13.6260081,11.5584677 L23.1169355,17.3235887 C23.3921371,17.4929435 23.3850806,17.8951613 23.109879,18.0504032 L13.6189516,23.4979839 C13.3366935,23.6602823 12.983871,23.4556452 12.983871,23.1310484 Z" id="Shape"></path>
                </g>
            </g>
        </g>
    </g>
</svg>