<?xml version="1.0" encoding="UTF-8"?>
<svg width="1024px" height="1024px" viewBox="0 0 1024 1024" version="1.1" xmlns="http://www.w3.org/2000/svg" xmlns:xlink="http://www.w3.org/1999/xlink">
    <!-- Generator: Sketch 55.2 (78181) - https://sketchapp.com -->
    <title>NerdGlasses</title>
    <desc>Created with Sketch.</desc>
    <g id="NerdGlasses" stroke="none" strokeWidth="1" fill="none" fillRule="evenodd">
        <rect id="Rectangle" x="0" y="0" width="1024" height="1024"></rect>
        <g id="Hipster-glasses-by-Rones" transform="translate(336.000000, 371.000000)" fill="#000000" fillRule="nonzero">
            <path d="M164.773887,18.4183848 C159.273927,18.1578395 153.512303,16.788217 147.588877,13.2382348 C133.398052,4.73352427 97.6141864,0.00191529532 86.9359192,3.65838634e-05 C56.8567255,-0.007294462 27.244068,1.08461738 0,5.58312407 L0.904474492,27.6275412 C8.69151467,30.7060507 11.0641566,36.4565242 12.1305931,43.3982198 C17.0459423,75.3933689 23.935761,102.602444 36.7642083,113.790703 C45.8748869,121.736528 57.3223196,128.659806 78.7424404,127.949781 C101.560578,127.193413 125.801363,120.411626 137.692866,105.560021 C148.132601,92.5215687 159.02195,72.4617441 162.964941,50.5353153 C164.450593,42.2736889 169.855275,38.62097 176,38.62097 C182.144717,38.62097 187.549415,42.2736889 189.035067,50.5353153 C192.978042,72.4617441 203.867407,92.5215687 214.307141,105.560021 C226.198644,120.411626 250.439429,127.193413 273.257552,127.949781 C294.677683,128.659806 306.125118,121.736528 315.235796,113.790703 C328.064243,102.602444 334.954061,75.3933689 339.869402,43.3982198 C340.935848,36.4565242 343.308484,30.7060507 351.095534,27.6275412 L352,5.58312407 C324.755935,1.08461738 295.143272,-0.007293822 265.064088,3.65838634e-05 C254.385806,0.00191513532 218.601941,4.73352427 204.41113,13.2382348 C198.487704,16.788217 192.726066,18.1578395 187.226121,18.4183848 C179.749216,18.7725874 172.250792,18.7725874 164.773887,18.4183848 Z M77.1388703,10.8936505 C83.7583908,10.8814671 90.4620564,11.0550302 96.802783,10.9517013 C102.289654,10.8623458 140.092614,9.74422469 146.201091,34.2788319 C152.023495,57.6644298 143.386999,87.3960363 125.000099,104.202767 C112.188516,115.913346 61.769826,128.621672 41.9982222,103.513296 C28.4469371,86.3042435 25.5798686,70.6902252 24.136386,49.0450211 C23.2219444,35.3329886 26.4766708,21.3421898 47.1394618,14.2266926 C55.3492832,11.3995271 66.1063116,10.9150214 77.1388703,10.8936505 L77.1388703,10.8936505 Z M251.752058,10.8936505 C253.322789,10.8854797 254.511354,10.9410055 255.197215,10.9520369 C261.537941,11.0553654 268.241622,10.881803 274.861142,10.8936505 C285.893701,10.9154492 296.650721,11.3999528 304.86054,14.2271071 C325.523334,21.3425749 328.778055,35.3333177 327.863614,49.0452954 C326.420139,70.6904145 323.553064,86.3043703 310.001784,103.513354 C290.230182,128.62163 239.811496,115.913354 226.999899,104.202822 C208.613014,87.3961587 199.976503,57.6646712 205.798908,34.2791669 C211.143832,12.8114707 240.757056,10.9562288 251.752058,10.8936505 L251.752058,10.8936505 Z M9,16.3404574 L24,16.3404574 L24,19.9716621 L9,19.9716621 L9,16.3404574 Z M328,16.3404574 L343,16.3404574 L343,19.9716621 L328,19.9716621 L328,16.3404574 Z" id="path2998"></path>
        </g>
    </g>
</svg>