<?xml version="1.0" encoding="UTF-8"?>
<svg width="8192px" height="1024px" viewBox="0 0 8192 1024" version="1.1" xmlns="http://www.w3.org/2000/svg" xmlns:xlink="http://www.w3.org/1999/xlink">
    <!-- Generator: Sketch 55.2 (78181) - https://sketchapp.com -->
    <title>EyesMove</title>
    <desc>Created with Sketch.</desc>
    <g id="EyesMove" stroke="none" strokeWidth="1" fill="none" fillRule="evenodd">
        <g id="Group">
            <rect id="Rectangle" x="0" y="0" width="1024" height="1024"></rect>
            <circle id="Oval" fill="#FFFFFF" cx="438" cy="428" r="64"></circle>
            <circle id="Oval" fill="#FFFFFF" cx="587" cy="428" r="64"></circle>
            <path d="M438.579457,467 C459.798537,467 477,449.112669 477,427.047529 C477,404.982388 459.74053,385.467483 438.579457,387.095058 C418.888601,388.609553 413.563622,396.063303 422.604522,409.456309 C409.432725,402.57857 401.950856,408.44231 400.158914,427.047529 C398.044329,449.002663 417.360377,467 438.579457,467 Z" id="Oval" fill="#17191C"></path>
            <path d="M587.159878,467.529706 C608.507597,467.529706 625.813343,449.584917 625.813343,427.448898 C625.813343,405.312879 608.449238,385.735287 587.159878,387.36809 C567.349647,388.887451 561.992386,396.365144 571.088095,409.801171 C557.836445,402.901339 550.309218,408.783915 548.506412,427.448898 C546.379007,449.474558 565.812158,467.529706 587.159878,467.529706 Z" id="Oval" fill="#17191C"></path>
        </g>
        <g id="Group" transform="translate(1024.000000, 0.000000)">
            <rect id="Rectangle" x="0" y="0" width="1024" height="1024"></rect>
            <circle id="Oval" fill="#FFFFFF" cx="438" cy="428" r="64"></circle>
            <circle id="Oval" fill="#FFFFFF" cx="587" cy="428" r="64"></circle>
            <path d="M443.579457,471 C464.798537,471 482,453.112669 482,431.047529 C482,408.982388 464.74053,389.467483 443.579457,391.095058 C423.888601,392.609553 418.563622,400.063303 427.604522,413.456309 C414.432725,406.57857 406.950856,412.44231 405.158914,431.047529 C403.044329,453.002663 422.360377,471 443.579457,471 Z" id="Oval" fill="#17191C"></path>
            <path d="M592.159878,471.529706 C613.507597,471.529706 630.813343,453.584917 630.813343,431.448898 C630.813343,409.312879 613.449238,389.735287 592.159878,391.36809 C572.349647,392.887451 566.992386,400.365144 576.088095,413.801171 C562.836445,406.901339 555.309218,412.783915 553.506412,431.448898 C551.379007,453.474558 570.812158,471.529706 592.159878,471.529706 Z" id="Oval" fill="#17191C"></path>
        </g>
        <g id="Group" transform="translate(2048.000000, 0.000000)">
            <rect id="Rectangle" x="0" y="0" width="1024" height="1024"></rect>
            <circle id="Oval" fill="#FFFFFF" cx="438" cy="428" r="64"></circle>
            <circle id="Oval" fill="#FFFFFF" cx="587" cy="428" r="64"></circle>
            <path d="M438.579457,467 C459.798537,467 477,449.112669 477,427.047529 C477,404.982388 459.74053,385.467483 438.579457,387.095058 C418.888601,388.609553 413.563622,396.063303 422.604522,409.456309 C409.432725,402.57857 401.950856,408.44231 400.158914,427.047529 C398.044329,449.002663 417.360377,467 438.579457,467 Z" id="Oval" fill="#17191C"></path>
            <path d="M587.159878,467.529706 C608.507597,467.529706 625.813343,449.584917 625.813343,427.448898 C625.813343,405.312879 608.449238,385.735287 587.159878,387.36809 C567.349647,388.887451 561.992386,396.365144 571.088095,409.801171 C557.836445,402.901339 550.309218,408.783915 548.506412,427.448898 C546.379007,449.474558 565.812158,467.529706 587.159878,467.529706 Z" id="Oval" fill="#17191C"></path>
        </g>
        <g id="Group" transform="translate(3072.000000, 0.000000)">
            <rect id="Rectangle" x="0" y="0" width="1024" height="1024"></rect>
            <circle id="Oval" fill="#FFFFFF" cx="438" cy="428" r="64"></circle>
            <circle id="Oval" fill="#FFFFFF" cx="587" cy="428" r="64"></circle>
            <path d="M433.579457,472 C454.798537,472 472,454.112669 472,432.047529 C472,409.982388 454.74053,390.467483 433.579457,392.095058 C413.888601,393.609553 408.563622,401.063303 417.604522,414.456309 C404.432725,407.57857 396.950856,413.44231 395.158914,432.047529 C393.044329,454.002663 412.360377,472 433.579457,472 Z" id="Oval" fill="#17191C"></path>
            <path d="M582.159878,472.529706 C603.507597,472.529706 620.813343,454.584917 620.813343,432.448898 C620.813343,410.312879 603.449238,390.735287 582.159878,392.36809 C562.349647,393.887451 556.992386,401.365144 566.088095,414.801171 C552.836445,407.901339 545.309218,413.783915 543.506412,432.448898 C541.379007,454.474558 560.812158,472.529706 582.159878,472.529706 Z" id="Oval" fill="#17191C"></path>
        </g>
        <g id="Group" transform="translate(4096.000000, 0.000000)">
            <rect id="Rectangle" x="0" y="0" width="1024" height="1024"></rect>
            <circle id="Oval" fill="#FFFFFF" cx="438" cy="428" r="64"></circle>
            <circle id="Oval" fill="#FFFFFF" cx="587" cy="428" r="64"></circle>
            <path d="M438.579457,467 C459.798537,467 477,449.112669 477,427.047529 C477,404.982388 459.74053,385.467483 438.579457,387.095058 C418.888601,388.609553 413.563622,396.063303 422.604522,409.456309 C409.432725,402.57857 401.950856,408.44231 400.158914,427.047529 C398.044329,449.002663 417.360377,467 438.579457,467 Z" id="Oval" fill="#17191C"></path>
            <path d="M587.159878,467.529706 C608.507597,467.529706 625.813343,449.584917 625.813343,427.448898 C625.813343,405.312879 608.449238,385.735287 587.159878,387.36809 C567.349647,388.887451 561.992386,396.365144 571.088095,409.801171 C557.836445,402.901339 550.309218,408.783915 548.506412,427.448898 C546.379007,449.474558 565.812158,467.529706 587.159878,467.529706 Z" id="Oval" fill="#17191C"></path>
        </g>
        <g id="Group" transform="translate(5120.000000, 0.000000)">
            <rect id="Rectangle" x="0" y="0" width="1024" height="1024"></rect>
            <circle id="Oval" fill="#FFFFFF" cx="438" cy="428" r="64"></circle>
            <circle id="Oval" fill="#FFFFFF" cx="587" cy="428" r="64"></circle>
            <path d="M434.579457,463 C455.798537,463 473,445.112669 473,423.047529 C473,400.982388 455.74053,381.467483 434.579457,383.095058 C414.888601,384.609553 409.563622,392.063303 418.604522,405.456309 C405.432725,398.57857 397.950856,404.44231 396.158914,423.047529 C394.044329,445.002663 413.360377,463 434.579457,463 Z" id="Oval" fill="#17191C"></path>
            <path d="M583.159878,463.529706 C604.507597,463.529706 621.813343,445.584917 621.813343,423.448898 C621.813343,401.312879 604.449238,381.735287 583.159878,383.36809 C563.349647,384.887451 557.992386,392.365144 567.088095,405.801171 C553.836445,398.901339 546.309218,404.783915 544.506412,423.448898 C542.379007,445.474558 561.812158,463.529706 583.159878,463.529706 Z" id="Oval" fill="#17191C"></path>
        </g>
        <g id="Group" transform="translate(6144.000000, 0.000000)">
            <rect id="Rectangle" x="0" y="0" width="1024" height="1024"></rect>
            <circle id="Oval" fill="#FFFFFF" cx="438" cy="428" r="64"></circle>
            <circle id="Oval" fill="#FFFFFF" cx="587" cy="428" r="64"></circle>
            <path d="M438.579457,467 C459.798537,467 477,449.112669 477,427.047529 C477,404.982388 459.74053,385.467483 438.579457,387.095058 C418.888601,388.609553 413.563622,396.063303 422.604522,409.456309 C409.432725,402.57857 401.950856,408.44231 400.158914,427.047529 C398.044329,449.002663 417.360377,467 438.579457,467 Z" id="Oval" fill="#17191C"></path>
            <path d="M587.159878,467.529706 C608.507597,467.529706 625.813343,449.584917 625.813343,427.448898 C625.813343,405.312879 608.449238,385.735287 587.159878,387.36809 C567.349647,388.887451 561.992386,396.365144 571.088095,409.801171 C557.836445,402.901339 550.309218,408.783915 548.506412,427.448898 C546.379007,449.474558 565.812158,467.529706 587.159878,467.529706 Z" id="Oval" fill="#17191C"></path>
        </g>
        <g id="Group" transform="translate(7168.000000, 0.000000)">
            <rect id="Rectangle" x="0" y="0" width="1024" height="1024"></rect>
            <circle id="Oval" fill="#FFFFFF" cx="438" cy="428" r="64"></circle>
            <circle id="Oval" fill="#FFFFFF" cx="587" cy="428" r="64"></circle>
            <path d="M442.579457,463 C463.798537,463 481,445.112669 481,423.047529 C481,400.982388 463.74053,381.467483 442.579457,383.095058 C422.888601,384.609553 417.563622,392.063303 426.604522,405.456309 C413.432725,398.57857 405.950856,404.44231 404.158914,423.047529 C402.044329,445.002663 421.360377,463 442.579457,463 Z" id="Oval" fill="#17191C"></path>
            <path d="M591.159878,463.529706 C612.507597,463.529706 629.813343,445.584917 629.813343,423.448898 C629.813343,401.312879 612.449238,381.735287 591.159878,383.36809 C571.349647,384.887451 565.992386,392.365144 575.088095,405.801171 C561.836445,398.901339 554.309218,404.783915 552.506412,423.448898 C550.379007,445.474558 569.812158,463.529706 591.159878,463.529706 Z" id="Oval" fill="#17191C"></path>
        </g>
    </g>
</svg>