<?xml version="1.0" encoding="UTF-8"?>
<svg width="8192px" height="1024px" viewBox="0 0 8192 1024" version="1.1" xmlns="http://www.w3.org/2000/svg" xmlns:xlink="http://www.w3.org/1999/xlink">
    <!-- Generator: Sketch 55.2 (78181) - https://sketchapp.com -->
    <title>LeftBigWingMove</title>
    <desc>Created with Sketch.</desc>
    <g id="LeftBigWingMove" stroke="none" strokeWidth="1" fill="none" fillRule="evenodd">
        <rect id="Rectangle" x="0" y="0" width="1024" height="1024"></rect>
        <path d="M309.561286,413.618026 C354.500779,438.837348 384.807215,486.492772 384.807215,541.128416 C384.807215,595.215835 355.105929,642.462413 310.909646,667.872877 C265.970153,642.653555 235.663717,594.998131 235.663717,540.362487 C235.663717,486.275068 265.365003,439.02849 309.561286,413.618026 Z" id="Combined-Shape" stroke="#C7CBD1" strokeWidth="15" fill="#C7CBD1" transform="translate(310.235466, 540.745451) rotate(-59.000000) translate(-310.235466, -540.745451) "></path>
        <rect id="Rectangle" x="1024" y="0" width="1024" height="1024"></rect>
        <path d="M1341.37969,401.056307 C1386.31918,426.275629 1416.62562,473.931053 1416.62562,528.566697 C1416.62562,582.654116 1386.92433,629.900694 1342.72805,655.311158 C1297.78855,630.091836 1267.48212,582.436412 1267.48212,527.800768 C1267.48212,473.713349 1297.1834,426.466771 1341.37969,401.056307 Z" id="Combined-Shape" stroke="#C7CBD1" strokeWidth="15" fill="#C7CBD1" transform="translate(1342.053867, 528.183732) rotate(-54.000000) translate(-1342.053867, -528.183732) "></path>
        <rect id="Rectangle" x="2048" y="0" width="1024" height="1024"></rect>
        <path d="M2374.34999,389.231403 C2419.28948,414.450725 2449.59592,462.106149 2449.59592,516.741793 C2449.59592,570.829213 2419.89463,618.075791 2375.69835,643.486255 C2330.75885,618.266933 2300.45242,570.611509 2300.45242,515.975865 C2300.45242,461.888446 2330.1537,414.641868 2374.34999,389.231403 Z" id="Combined-Shape" stroke="#C7CBD1" strokeWidth="15" fill="#C7CBD1" transform="translate(2375.024166, 516.358829) rotate(-49.000000) translate(-2375.024166, -516.358829) "></path>
        <rect id="Rectangle" x="3072" y="0" width="1024" height="1024"></rect>
        <path d="M3389.42326,401.058209 C3434.36276,426.277531 3464.66919,473.932955 3464.66919,528.568599 C3464.66919,582.656018 3434.96791,629.902597 3390.77162,655.313061 C3345.83213,630.093739 3315.5257,582.438315 3315.5257,527.802671 C3315.5257,473.715252 3345.22698,426.468674 3389.42326,401.058209 Z" id="Combined-Shape" stroke="#C7CBD1" strokeWidth="15" fill="#C7CBD1" transform="translate(3390.097445, 528.185635) rotate(-54.000000) translate(-3390.097445, -528.185635) "></path>
        <rect id="Rectangle" x="4096" y="0" width="1024" height="1024"></rect>
        <path d="M4405.56129,413.618026 C4450.50078,438.837348 4480.80722,486.492772 4480.80722,541.128416 C4480.80722,595.215835 4451.10593,642.462413 4406.90965,667.872877 C4361.97015,642.653555 4331.66372,594.998131 4331.66372,540.362487 C4331.66372,486.275068 4361.365,439.02849 4405.56129,413.618026 Z" id="Combined-Shape" stroke="#C7CBD1" strokeWidth="15" fill="#C7CBD1" transform="translate(4406.235466, 540.745451) rotate(-59.000000) translate(-4406.235466, -540.745451) "></path>
        <rect id="Rectangle" x="5120" y="0" width="1024" height="1024"></rect>
        <path d="M5422.82389,426.815265 C5467.76338,452.034587 5498.06981,499.690011 5498.06981,554.325655 C5498.06981,608.413074 5468.36853,655.659652 5424.17224,681.070116 C5379.23275,655.850794 5348.92632,608.19537 5348.92632,553.559726 C5348.92632,499.472307 5378.6276,452.225729 5422.82389,426.815265 Z" id="Combined-Shape" stroke="#C7CBD1" strokeWidth="15" fill="#C7CBD1" transform="translate(5423.498065, 553.942690) rotate(-64.000000) translate(-5423.498065, -553.942690) "></path>
        <rect id="Rectangle" x="6144" y="0" width="1024" height="1024"></rect>
        <path d="M6441.26234,440.549488 C6486.20183,465.768809 6516.50827,513.424233 6516.50827,568.059877 C6516.50827,622.147297 6486.80698,669.393875 6442.6107,694.804339 C6397.6712,669.585017 6367.36477,621.929593 6367.36477,567.293949 C6367.36477,513.20653 6397.06605,465.959952 6441.26234,440.549488 Z" id="Combined-Shape" stroke="#C7CBD1" strokeWidth="15" fill="#C7CBD1" transform="translate(6441.936517, 567.676913) rotate(-69.000000) translate(-6441.936517, -567.676913) "></path>
        <rect id="Rectangle" x="7168" y="0" width="1024" height="1024"></rect>
        <path d="M7470.91104,426.81146 C7515.85053,452.030781 7546.15697,499.686205 7546.15697,554.321849 C7546.15697,608.409269 7516.45568,655.655847 7472.2594,681.066311 C7427.31991,655.846989 7397.01347,608.191565 7397.01347,553.555921 C7397.01347,499.468502 7426.71476,452.221924 7470.91104,426.81146 Z" id="Combined-Shape" stroke="#C7CBD1" strokeWidth="15" fill="#C7CBD1" transform="translate(7471.585221, 553.938885) rotate(-64.000000) translate(-7471.585221, -553.938885) "></path>
    </g>
</svg>