<?xml version="1.0" encoding="UTF-8"?>
<svg width="8192px" height="1024px" viewBox="0 0 8192 1024" version="1.1" xmlns="http://www.w3.org/2000/svg" xmlns:xlink="http://www.w3.org/1999/xlink">
    <!-- Generator: Sketch 55.2 (78181) - https://sketchapp.com -->
    <title>LeftSmallWingMove</title>
    <desc>Created with Sketch.</desc>
    <g id="LeftSmallWingMove" stroke="none" strokeWidth="1" fill="none" fillRule="evenodd">
        <rect id="Rectangle" x="0" y="0" width="1024" height="1024"></rect>
        <path d="M340.623088,557.609442 C369.438809,574.492345 388.750839,605.495449 388.750839,640.946527 C388.750839,677.375807 368.358351,709.108261 338.216247,725.648707 C309.400525,708.765804 290.088496,677.7627 290.088496,642.311623 C290.088496,605.882343 310.480984,574.149889 340.623088,557.609442 Z" id="Combined-Shape-Copy" stroke="#E3E5E8" strokeWidth="15" fill="#E3E5E8" transform="translate(339.419667, 641.629075) rotate(-109.000000) translate(-339.419667, -641.629075) "></path>
        <rect id="Rectangle" x="1024" y="0" width="1024" height="1024"></rect>
        <path d="M1363.53785,547.207401 C1392.35357,564.090304 1411.6656,595.093409 1411.6656,630.544486 C1411.6656,666.973766 1391.27311,698.70622 1361.13101,715.246666 C1332.31528,698.363763 1313.00325,667.360659 1313.00325,631.909582 C1313.00325,595.480302 1333.39574,563.747848 1363.53785,547.207401 Z" id="Combined-Shape-Copy" stroke="#E3E5E8" strokeWidth="15" fill="#E3E5E8" transform="translate(1362.334426, 631.227034) rotate(-104.000000) translate(-1362.334426, -631.227034) "></path>
        <rect id="Rectangle" x="2048" y="0" width="1024" height="1024"></rect>
        <path d="M2387.45016,536.757954 C2416.26588,553.640857 2435.57791,584.643962 2435.57791,620.095039 C2435.57791,656.524319 2415.18542,688.256773 2385.04332,704.79722 C2356.22759,687.914316 2336.91556,656.911212 2336.91556,621.460135 C2336.91556,585.030855 2357.30805,553.298401 2387.45016,536.757954 Z" id="Combined-Shape-Copy" stroke="#E3E5E8" strokeWidth="15" fill="#E3E5E8" transform="translate(2386.246736, 620.777587) rotate(-99.000000) translate(-2386.246736, -620.777587) "></path>
        <rect id="Rectangle" x="3072" y="0" width="1024" height="1024"></rect>
        <path d="M3411.45016,536.757954 C3440.26588,553.640857 3459.57791,584.643962 3459.57791,620.095039 C3459.57791,656.524319 3439.18542,688.256773 3409.04332,704.79722 C3380.22759,687.914316 3360.91556,656.911212 3360.91556,621.460135 C3360.91556,585.030855 3381.30805,553.298401 3411.45016,536.757954 Z" id="Combined-Shape-Copy" stroke="#E3E5E8" strokeWidth="15" fill="#E3E5E8" transform="translate(3410.246736, 620.777587) rotate(-99.000000) translate(-3410.246736, -620.777587) "></path>
        <rect id="Rectangle" x="4096" y="0" width="1024" height="1024"></rect>
        <path d="M4436.62309,557.609442 C4465.43881,574.492345 4484.75084,605.495449 4484.75084,640.946527 C4484.75084,677.375807 4464.35835,709.108261 4434.21625,725.648707 C4405.40053,708.765804 4386.0885,677.7627 4386.0885,642.311623 C4386.0885,605.882343 4406.48098,574.149889 4436.62309,557.609442 Z" id="Combined-Shape-Copy" stroke="#E3E5E8" strokeWidth="15" fill="#E3E5E8" transform="translate(4435.419667, 641.629075) rotate(-109.000000) translate(-4435.419667, -641.629075) "></path>
        <rect id="Rectangle" x="5120" y="0" width="1024" height="1024"></rect>
        <path d="M5462.56722,567.879218 C5491.38294,584.762121 5510.69497,615.765225 5510.69497,651.216303 C5510.69497,687.645582 5490.30248,719.378036 5460.16038,735.918483 C5431.34466,719.03558 5412.03263,688.032476 5412.03263,652.581398 C5412.03263,616.152118 5432.42511,584.419664 5462.56722,567.879218 Z" id="Combined-Shape-Copy" stroke="#E3E5E8" strokeWidth="15" fill="#E3E5E8" transform="translate(5461.363799, 651.898850) rotate(-114.000000) translate(-5461.363799, -651.898850) "></path>
        <rect id="Rectangle" x="6144" y="0" width="1024" height="1024"></rect>
        <path d="M6489.39902,577.940472 C6518.21474,594.823375 6537.52677,625.826479 6537.52677,661.277556 C6537.52677,697.706836 6517.13429,729.43929 6486.99218,745.979737 C6458.17646,729.096834 6438.86443,698.093729 6438.86443,662.642652 C6438.86443,626.213372 6459.25692,594.480918 6489.39902,577.940472 Z" id="Combined-Shape-Copy" stroke="#E3E5E8" strokeWidth="15" fill="#E3E5E8" transform="translate(6488.195602, 661.960104) rotate(-119.000000) translate(-6488.195602, -661.960104) "></path>
        <rect id="Rectangle" x="7168" y="0" width="1024" height="1024"></rect>
        <path d="M7510.65437,567.875412 C7539.4701,584.758316 7558.78213,615.76142 7558.78213,651.212497 C7558.78213,687.641777 7538.38964,719.374231 7508.24753,735.914678 C7479.43181,719.031774 7460.11978,688.02867 7460.11978,652.577593 C7460.11978,616.148313 7480.51227,584.415859 7510.65437,567.875412 Z" id="Combined-Shape-Copy" stroke="#E3E5E8" strokeWidth="15" fill="#E3E5E8" transform="translate(7509.450954, 651.895045) rotate(-114.000000) translate(-7509.450954, -651.895045) "></path>
    </g>
</svg>