<?xml version="1.0" encoding="UTF-8"?>
<svg width="8192px" height="1024px" viewBox="0 0 8192 1024" version="1.1" xmlns="http://www.w3.org/2000/svg" xmlns:xlink="http://www.w3.org/1999/xlink">
    <!-- Generator: Sketch 55.2 (78181) - https://sketchapp.com -->
    <title>RightSmallWingMove</title>
    <desc>Created with Sketch.</desc>
    <g id="RightSmallWingMove" stroke="none" strokeWidth="1" fill="none" fillRule="evenodd">
        <rect id="Rectangle" x="0" y="0" width="1024" height="1024"></rect>
        <path d="M687.068633,555.354938 C716.880738,572.363777 736.860535,603.598145 736.860535,639.313665 C736.860535,676.014685 715.76292,707.983843 684.578569,724.647671 C654.766463,707.638832 634.786667,676.404464 634.786667,640.688944 C634.786667,603.987924 655.884282,572.018766 687.068633,555.354938 Z" id="Combined-Shape-Copy-3" stroke="#E3E5E8" strokeWidth="15" fill="#E3E5E8" transform="translate(685.823601, 640.001305) scale(-1, 1) rotate(-109.000000) translate(-685.823601, -640.001305) "></path>
        <rect id="Rectangle" x="1024" y="0" width="1024" height="1024"></rect>
        <path d="M1711.92012,544.854539 C1741.73222,561.863378 1761.71202,593.097746 1761.71202,628.813266 C1761.71202,665.514286 1740.6144,697.483444 1709.43005,714.147272 C1679.61795,697.138433 1659.63815,665.904065 1659.63815,630.188545 C1659.63815,593.487525 1680.73577,561.518367 1711.92012,544.854539 Z" id="Combined-Shape-Copy-3" stroke="#E3E5E8" strokeWidth="15" fill="#E3E5E8" transform="translate(1710.675086, 629.500905) scale(-1, 1) rotate(-114.000000) translate(-1710.675086, -629.500905) "></path>
        <rect id="Rectangle" x="2048" y="0" width="1024" height="1024"></rect>
        <path d="M2735.76637,534.327481 C2765.57847,551.33632 2785.55827,582.570688 2785.55827,618.286208 C2785.55827,654.987228 2764.46066,686.956386 2733.2763,703.620214 C2703.4642,686.611375 2683.4844,655.377007 2683.4844,619.661487 C2683.4844,582.960467 2704.58202,550.991309 2735.76637,534.327481 Z" id="Combined-Shape-Copy-3" stroke="#E3E5E8" strokeWidth="15" fill="#E3E5E8" transform="translate(2734.521336, 618.973847) scale(-1, 1) rotate(-119.000000) translate(-2734.521336, -618.973847) "></path>
        <rect id="Rectangle" x="3072" y="0" width="1024" height="1024"></rect>
        <path d="M3759.9637,544.852636 C3789.7758,561.861475 3809.7556,593.095843 3809.7556,628.811363 C3809.7556,665.512383 3788.65798,697.481541 3757.47363,714.145369 C3727.66153,697.13653 3707.68173,665.902162 3707.68173,630.186642 C3707.68173,593.485622 3728.77934,561.516464 3759.9637,544.852636 Z" id="Combined-Shape-Copy-3" stroke="#E3E5E8" strokeWidth="15" fill="#E3E5E8" transform="translate(3758.718663, 629.499003) scale(-1, 1) rotate(-114.000000) translate(-3758.718663, -629.499003) "></path>
        <rect id="Rectangle" x="4096" y="0" width="1024" height="1024"></rect>
        <path d="M4783.06863,555.354938 C4812.88074,572.363777 4832.86053,603.598145 4832.86053,639.313665 C4832.86053,676.014685 4811.76292,707.983843 4780.57857,724.647671 C4750.76646,707.638832 4730.78667,676.404464 4730.78667,640.688944 C4730.78667,603.987924 4751.88428,572.018766 4783.06863,555.354938 Z" id="Combined-Shape-Copy-3" stroke="#E3E5E8" strokeWidth="15" fill="#E3E5E8" transform="translate(4781.823601, 640.001305) scale(-1, 1) rotate(-109.000000) translate(-4781.823601, -640.001305) "></path>
        <rect id="Rectangle" x="5120" y="0" width="1024" height="1024"></rect>
        <path d="M5805.3488,565.743071 C5835.1609,582.75191 5855.1407,613.986278 5855.1407,649.701799 C5855.1407,686.402818 5834.04308,718.371976 5802.85873,735.035804 C5773.04663,718.026965 5753.06683,686.792597 5753.06683,651.077077 C5753.06683,614.376057 5774.16444,582.406899 5805.3488,565.743071 Z" id="Combined-Shape-Copy-3" stroke="#E3E5E8" strokeWidth="15" fill="#E3E5E8" transform="translate(5804.103764, 650.389438) scale(-1, 1) rotate(-104.000000) translate(-5804.103764, -650.389438) "></path>
        <rect id="Rectangle" x="6144" y="0" width="1024" height="1024"></rect>
        <path d="M6826.55647,575.926588 C6856.36857,592.935428 6876.34837,624.169795 6876.34837,659.885316 C6876.34837,696.586335 6855.25076,728.555494 6824.06641,745.219322 C6794.2543,728.210482 6774.2745,696.976114 6774.2745,661.260594 C6774.2745,624.559575 6795.37212,592.590416 6826.55647,575.926588 Z" id="Combined-Shape-Copy-3" stroke="#E3E5E8" strokeWidth="15" fill="#E3E5E8" transform="translate(6825.311438, 660.572955) scale(-1, 1) rotate(-99.000000) translate(-6825.311438, -660.572955) "></path>
        <rect id="Rectangle" x="7168" y="0" width="1024" height="1024"></rect>
        <path d="M7853.3488,565.743071 C7883.1609,582.75191 7903.1407,613.986278 7903.1407,649.701799 C7903.1407,686.402818 7882.04308,718.371976 7850.85873,735.035804 C7821.04663,718.026965 7801.06683,686.792597 7801.06683,651.077077 C7801.06683,614.376057 7822.16444,582.406899 7853.3488,565.743071 Z" id="Combined-Shape-Copy-3" stroke="#E3E5E8" strokeWidth="15" fill="#E3E5E8" transform="translate(7852.103764, 650.389438) scale(-1, 1) rotate(-104.000000) translate(-7852.103764, -650.389438) "></path>
    </g>
</svg>