<?xml version="1.0" encoding="UTF-8"?>
<svg width="1165px" height="784px" viewBox="0 0 1165 784" version="1.1" xmlns="http://www.w3.org/2000/svg" xmlns:xlink="http://www.w3.org/1999/xlink">
    <!-- Generator: Sketch 57.1 (83088) - https://sketch.com -->
    <title>TutorialBookBackground</title>
    <desc>Created with Sketch.</desc>
    <defs>
        <path d="M23.2616209,4.8450037 L147.744877,25.4213248 L147.744877,25.4213248 L1172.57031,25.4213248 C1183.61601,25.4213248 1192.57031,34.3756298 1192.57031,45.4213248 L1192.57031,753.358209 C1192.57031,764.403904 1183.61601,773.358209 1172.57031,773.358209 L181.616104,773.358209 L181.616104,773.358209 L165.539063,780 L146.570313,780 L124.046875,768 L18.513382,760.13384 C8.07336771,759.355672 -9.37606132e-15,750.658143 0,740.189167 L0,24.5772572 C-8.45813486e-15,13.5315622 8.954305,4.57725723 20,4.57725723 C21.0926956,4.57725723 22.1835535,4.66680576 23.2616209,4.8450037 Z" id="path-1"></path>
        <filter x="-0.2%" y="0.2%" width="100.7%" height="100.6%" filterUnits="objectBoundingBox" id="filter-2">
            <feOffset dx="4" dy="4" in="SourceAlpha" result="shadowOffsetOuter1"></feOffset>
            <feColorMatrix values="0 0 0 0 0.219607843   0 0 0 0 0.180392157   0 0 0 0 0.721568627  0 0 0 1 0" type="matrix" in="shadowOffsetOuter1"></feColorMatrix>
        </filter>
        <linearGradient x1="100%" y1="50%" x2="50%" y2="50%" id="linearGradient-3">
            <stop stop-color="#B6E699" offset="0%"></stop>
            <stop stop-color="#E2F5D6" offset="100%"></stop>
        </linearGradient>
        <path d="M31.6015625,35.4164143 C77.3772426,34.8611952 107.945247,34.8611952 123.305575,35.4164143 C138.665904,35.9716333 149.097899,37.4536317 154.601562,39.8624092 L154.601562,753 C151.064511,746.829009 135.602153,742.29502 108.214489,739.398034 C80.8268245,736.501048 55.2891824,734.465616 31.6015625,733.291738 L31.6015625,35.4164143 Z" id="path-4"></path>
        <filter x="-4.9%" y="-0.8%" width="109.8%" height="103.3%" filterUnits="objectBoundingBox" id="filter-5">
            <feOffset dx="0" dy="12" in="SourceAlpha" result="shadowOffsetOuter1"></feOffset>
            <feColorMatrix values="0 0 0 0 0.71372549   0 0 0 0 0.901960784   0 0 0 0 0.6  0 0 0 1 0" type="matrix" in="shadowOffsetOuter1"></feColorMatrix>
        </filter>
        <path d="M157.601562,35 L273.601562,35 C284.647257,35 293.601562,43.954305 293.601562,55 L293.601562,730 C293.601562,741.045695 284.647257,750 273.601562,750 L157.601562,750 L157.601562,750 L157.601562,35 Z" id="path-6"></path>
        <filter x="-4.4%" y="-0.8%" width="108.8%" height="101.7%" filterUnits="objectBoundingBox" id="filter-7">
            <feOffset dx="0" dy="0" in="SourceAlpha" result="shadowOffsetOuter1"></feOffset>
            <feGaussianBlur stdDeviation="2" in="shadowOffsetOuter1" result="shadowBlurOuter1"></feGaussianBlur>
            <feColorMatrix values="0 0 0 0 0   0 0 0 0 0   0 0 0 0 0  0 0 0 0.5 0" type="matrix" in="shadowBlurOuter1"></feColorMatrix>
        </filter>
        <linearGradient x1="100%" y1="50%" x2="50%" y2="50%" id="linearGradient-8">
            <stop stop-color="#B6E699" offset="0%"></stop>
            <stop stop-color="#E2F5D6" offset="100%"></stop>
        </linearGradient>
        <polygon id="path-9" points="1032.60156 34 1110.60156 34 1110.60156 118 1071.60156 95.3945313 1032.60156 118"></polygon>
        <filter x="-9.0%" y="-6.0%" width="117.9%" height="116.7%" filterUnits="objectBoundingBox" id="filter-10">
            <feOffset dx="0" dy="2" in="SourceAlpha" result="shadowOffsetOuter1"></feOffset>
            <feGaussianBlur stdDeviation="2" in="shadowOffsetOuter1" result="shadowBlurOuter1"></feGaussianBlur>
            <feColorMatrix values="0 0 0 0 0   0 0 0 0 0   0 0 0 0 0  0 0 0 0.5 0" type="matrix" in="shadowBlurOuter1"></feColorMatrix>
        </filter>
    </defs>
    <g id="Tutorial-Draft" stroke="none" stroke-width="1" fill="none" fill-rule="evenodd">
        <g id="Story1-1" transform="translate(0.000000, -19.000000)">
            <g id="TutorialBookBackground" transform="translate(-31.601562, 19.000000)">
                <g id="Rectangle">
                    <use fill="black" fill-opacity="1" filter="url(#filter-2)" xlink:href="#path-1"></use>
                    <use fill="#5B4EFF" fill-rule="evenodd" xlink:href="#path-1"></use>
                </g>
                <path d="M154.570312,38 L1158.57031,38 C1169.61601,38 1178.57031,46.954305 1178.57031,58 L1178.57031,744 C1178.57031,755.045695 1169.61601,764 1158.57031,764 L154.570312,764 L154.570312,764 L154.570312,38 Z" id="Rectangle" fill="#B6E699"></path>
                <path d="M157.070312,37.5 L157.070312,759.5 L1157.57031,759.5 C1168.33987,759.5 1177.07031,750.769553 1177.07031,740 L1177.07031,57 C1177.07031,46.2304474 1168.33987,37.5 1157.57031,37.5 L157.070312,37.5 Z" id="Rectangle-Copy-7" stroke="#979797"></path>
                <path d="M157.070312,36.5 L157.070312,755.5 L1154.57031,755.5 C1165.33987,755.5 1174.07031,746.769553 1174.07031,736 L1174.07031,56 C1174.07031,45.2304474 1165.33987,36.5 1154.57031,36.5 L157.070312,36.5 Z" id="Rectangle-Copy-8" stroke="#979797"></path>
                <path d="M147.070312,35.5 L147.070312,751.5 L1150.57031,751.5 C1161.33987,751.5 1170.07031,742.769553 1170.07031,732 L1170.07031,55 C1170.07031,44.2304474 1161.33987,35.5 1150.57031,35.5 L147.070312,35.5 Z" id="Rectangle-Copy-5" stroke="#979797" fill="#E2F5D6"></path>
                <g id="Rectangle">
                    <use fill="black" fill-opacity="1" filter="url(#filter-5)" xlink:href="#path-4"></use>
                    <use fill="url(#linearGradient-3)" fill-rule="evenodd" xlink:href="#path-4"></use>
                </g>
                <g id="Grid" transform="translate(23.601562, 58.000000)" stroke="#D0CCFF" stroke-dasharray="1,80" stroke-linecap="round" stroke-linejoin="round" stroke-width="3">
                    <path d="M0,1 L1194,1" id="Line-Copy"></path>
                    <path d="M0,81 L1194,81" id="Line-Copy-2"></path>
                    <path d="M0,161 L1194,161" id="Line-Copy-3"></path>
                    <path d="M0,241 L1194,241" id="Line-Copy-4"></path>
                    <path d="M0,321 L1194,321" id="Line-Copy-5"></path>
                    <path d="M0,401 L1194,401" id="Line-Copy-6"></path>
                    <path d="M0,481 L1194,481" id="Line-Copy-7"></path>
                    <path d="M0,561 L1194,561" id="Line-Copy-8"></path>
                    <path d="M0,641 L1194,641" id="Line-Copy-9"></path>
                </g>
                <g id="trash-alt-solid" transform="translate(1071.601562, 655.000000)" fill="#ABB0BA" fill-rule="nonzero">
                    <path d="M3.14285714,45.5714286 C3.14285714,48.1750567 5.25351475,50.2857143 7.85714286,50.2857143 L36.1428571,50.2857143 C38.7464852,50.2857143 40.8571429,48.1750567 40.8571429,45.5714286 L40.8571429,12.5714286 L3.14285714,12.5714286 L3.14285714,45.5714286 Z M29.8571429,20.4285714 C29.8571429,19.5606954 30.5606954,18.8571429 31.4285714,18.8571429 C32.2964475,18.8571429 33,19.5606954 33,20.4285714 L33,42.4285714 C33,43.2964475 32.2964475,44 31.4285714,44 C30.5606954,44 29.8571429,43.2964475 29.8571429,42.4285714 L29.8571429,20.4285714 Z M20.4285714,20.4285714 C20.4285714,19.5606954 21.132124,18.8571429 22,18.8571429 C22.867876,18.8571429 23.5714286,19.5606954 23.5714286,20.4285714 L23.5714286,42.4285714 C23.5714286,43.2964475 22.867876,44 22,44 C21.132124,44 20.4285714,43.2964475 20.4285714,42.4285714 L20.4285714,20.4285714 Z M11,20.4285714 C11,19.5606954 11.7035525,18.8571429 12.5714286,18.8571429 C13.4393046,18.8571429 14.1428571,19.5606954 14.1428571,20.4285714 L14.1428571,42.4285714 C14.1428571,43.2964475 13.4393046,44 12.5714286,44 C11.7035525,44 11,43.2964475 11,42.4285714 L11,20.4285714 Z M42.4285714,3.14285714 L30.6428571,3.14285714 L29.7196429,1.30625 C29.3207385,0.505354474 28.5027747,-0.00064171895 27.6080357,-1.73123299e-05 L16.3821429,-1.73123299e-05 C15.4890866,-0.00343308455 14.6726657,0.50396873 14.2803571,1.30625 L13.3571429,3.14285714 L1.57142857,3.14285714 C0.703552536,3.14285714 0,3.84640968 0,4.71428571 L0,7.85714286 C0,8.72501889 0.703552536,9.42857143 1.57142857,9.42857143 L42.4285714,9.42857143 C43.2964475,9.42857143 44,8.72501889 44,7.85714286 L44,4.71428571 C44,3.84640968 43.2964475,3.14285714 42.4285714,3.14285714 Z" id="Shape"></path>
                </g>
                <g id="ToolBar">
                    <use fill="black" fill-opacity="1" filter="url(#filter-7)" xlink:href="#path-6"></use>
                    <use fill="#FFFFFF" fill-rule="evenodd" xlink:href="#path-6"></use>
                </g>
                <path d="M22.1083892,5.52845017 L31.5222434,738.676373 C55.7752569,739.862457 81.9072586,741.905307 109.918392,744.804878 C136.363524,747.542345 152.052782,751.716118 157.101563,757.469208 L157.101562,41.0587275 C143.757916,28.8336305 127.974413,20.4100159 109.743966,15.7854098 C91.4797625,11.1522402 62.2634169,7.73160054 22.1083894,5.52845266 Z" id="Rectangle-Copy-9" stroke="#979797"></path>
                <path d="M22.1083892,9.52845017 L31.5222434,742.676373 C55.7752569,743.862457 81.9072586,745.905307 109.918392,748.804878 C136.363524,751.542345 152.052782,755.716118 157.101563,761.469208 L157.101562,45.0587275 C143.757916,32.8336305 127.974413,24.4100159 109.743966,19.7854098 C91.4797625,15.1522402 62.2634169,11.7316005 22.1083894,9.52845266 Z" id="Rectangle-Copy-10" stroke="#979797"></path>
                <path d="M22.1083892,0.52845017 L31.5222434,733.676373 C55.7752569,734.862457 81.9072586,736.905307 109.918392,739.804878 C136.363524,742.542345 152.052782,746.716118 157.101563,752.469208 L157.101562,36.0587275 C143.757916,23.8336305 127.974413,15.4100159 109.743966,10.7854098 C91.4797625,6.15224023 62.2634169,2.73160054 22.1083894,0.528452655 Z" id="Rectangle-Copy-2" stroke="#979797" fill="url(#linearGradient-8)"></path>
                <g id="Rectangle">
                    <use fill="black" fill-opacity="1" filter="url(#filter-10)" xlink:href="#path-9"></use>
                    <use fill="#F9DC28" fill-rule="evenodd" xlink:href="#path-9"></use>
                </g>
            </g>
        </g>
    </g>
</svg>