<?xml version="1.0" encoding="utf-8"?>
<!-- Generator: Adobe Illustrator 23.0.6, SVG Export Plug-In . SVG Version: 6.00 Build 0)  -->
<svg version="1.1" id="Layer_1" xmlns="http://www.w3.org/2000/svg" xmlns:xlink="http://www.w3.org/1999/xlink" x="0px" y="0px"
	 viewBox="0 0 578 246" style="enable-background:new 0 0 578 246;" xml:space="preserve">
<style type="text/css">
	.st0{fill-rule:evenodd;clip-rule:evenodd;fill:#3E8C0D;}
	.st1{enable-background:new    ;}
	.st2{fill:#E2F5D6;}
</style>
<title>WelcomeToFirefly</title>
<desc>Created with Sketch.</desc>
<g id="HF-Design">
	<g id="TabletLandingPage" transform="translate(-309.000000, -223.000000)">
		<g id="WelcomeToFirefly" transform="translate(260.000000, 59.000000)">
			<path id="Rectangle" class="st0" d="M87.4,164.5c106.3,14.2,189.6,21.3,250.1,21.3c60.7,0,144.4-7.1,251.1-21.4l0,0
				c18.5-2.5,35.5,10.5,37.9,29c1.1,8.4-1,16.9-5.8,23.8c-20.1,28.6-30.1,51.9-30.1,69.8c0,17.9,10,41.1,30,69.7l0,0
				c10.7,15.3,7,36.3-8.3,47c-6.9,4.9-15.5,6.9-23.9,5.8c-105.4-14.2-189.1-21.3-251-21.3c-61.7,0-145,7-249.9,21.1l0,0
				c-18.5,2.5-35.5-10.5-37.9-29c-1.1-8.4,0.9-16.9,5.8-23.8c19.3-27.7,29-50.9,29-69.6c0-18.7-9.7-42-29.1-69.7l0,0
				c-10.7-15.3-6.9-36.3,8.3-47C70.6,165.4,79.1,163.4,87.4,164.5z"/>
			<g id="Group-10" transform="translate(90.000000, 202.000000)">
				<g class="st1">
					<path class="st2" d="M38.2,179.5c-1,1.5-2.2,2.7-3.6,3.4c-1.4,0.7-3,0.9-4.6,0.6s-3.1-1.4-4.4-3.1c-0.5-0.6-1-1.4-1.3-2.1
						c-0.4-0.8-0.6-1.5-0.7-2.3l-3.8-31.1c-1.2-0.6-2.2-1.4-2.9-2.4c-0.7-1.1-1.1-2.2-1.3-3.5c-0.2-1.3,0-2.5,0.5-3.7
						c0.5-1.2,1.2-2.3,2.1-3.2c-0.3-1.7-0.5-3.1-0.6-4.2c-0.1-1.1-0.2-2.2-0.3-3.3c-0.1-1.1-0.3-2.1-0.4-3.2
						c-0.1-1.1-0.4-2.4-0.7-3.8c-0.2-1.2-0.7-2.4-1.3-3.5c-0.6-1.1-1.2-2.3-1.7-3.4c-0.5-1.1-0.8-2.3-0.8-3.6
						c-0.1-1.2,0.3-2.5,1.1-3.7c1.1-1.7,2.6-2.9,4.5-3.4c1.8-0.5,3.7-1,5.6-1.4c4-0.8,8-1.4,12-1.9c4-0.5,8-1.1,12-1.7
						c1.1-0.1,2.4-0.4,3.6-0.8c1.3-0.4,2.6-0.7,3.9-1c1.3-0.3,2.6-0.5,3.9-0.5c1.3,0,2.6,0.2,3.7,0.7c1.4,0.6,2.5,1.5,3.3,2.7
						c0.8,1.2,1.2,2.4,1.3,3.7c0.1,1.3-0.1,2.6-0.7,4c-0.6,1.3-1.4,2.4-2.7,3.3c-2.1,1.5-4.6,2.5-7.3,2.8c-2.7,0.4-5.3,0.8-7.7,1.2
						c-2.9,0.4-5.8,0.8-8.7,1.1c-2.9,0.3-5.8,0.7-8.7,1.3c0.4,1.6,0.8,3.6,1.1,5.9c0.4,2.3,0.8,5.6,1.4,10c2.8-0.3,5.7-0.7,8.5-1.2
						c2.9-0.4,5.7-1.1,8.5-1.8c1.5-0.4,3-0.9,4.6-1.6c1.6-0.7,3.2-1,4.7-1c1.8,0,3.4,0.4,4.8,1.4c1.5,1,2.5,2.2,3.2,3.6
						c0.7,1.4,0.8,2.9,0.5,4.5c-0.3,1.6-1.4,3-3.1,4.3c-2,1.5-4.3,2.7-6.7,3.6s-4.9,1.6-7.6,2.1c-2.6,0.5-5.2,1-7.9,1.2
						c-2.6,0.3-5.2,0.6-7.6,0.9l3.6,29.3C39.6,176.2,39.1,177.9,38.2,179.5z"/>
				</g>
				<g class="st1">
					<path class="st2" d="M98.2,74.5c0.2-3.3,1.2-5.7,3-7.4c1.8-1.6,3.8-2.5,5.9-2.6c2.1-0.1,4.1,0.6,6,2.1c1.9,1.5,3,3.7,3.2,6.6
						c0.3,3-0.3,5.4-2,7.1c-1.6,1.7-3.6,2.8-5.7,3.1c-2.2,0.3-4.3-0.2-6.3-1.5c-2-1.3-3.3-3.5-3.9-6.6L98.2,74.5z M119.6,148.9
						c-0.1,1.8-0.6,3.4-1.6,4.8c-1,1.4-2.2,2.5-3.5,3.2c-1.3,0.7-2.8,0.9-4.4,0.6c-1.6-0.3-3.1-1.2-4.4-2.7
						c-0.8-0.8-1.3-1.8-1.7-2.9c-0.4-1.1-0.6-2.2-0.8-3.4c-0.2-1.2-0.2-2.4-0.3-3.6c0-1.2-0.1-2.3-0.1-3.2
						c-0.4-5.2-0.7-10.4-0.9-15.5c-0.2-5.1-0.5-10.3-0.9-15.5c-0.1-2.1-0.4-4.3-0.7-6.4c-0.4-2.1-0.4-4.3,0.1-6.4
						c0.4-1.6,1.1-3,2.1-4.2c1-1.2,2.2-2.1,3.6-2.6c1.3-0.5,2.8-0.6,4.2-0.4c1.5,0.3,2.8,1.1,3.9,2.6c1.5,1.7,2.3,3.4,2.4,5.1
						c0.1,1.7,0.2,3.8,0.3,6.3c0.2,3,0.3,6,0.5,9c0.2,3,0.4,6,0.6,8.9c0.3,4.2,0.6,8.5,0.8,12.7s0.4,8.5,0.7,12.7L119.6,148.9z"/>
				</g>
				<g class="st1">
					<path class="st2" d="M151.2,106.7c0-0.6-0.1-1.6-0.5-3.1c-1.5-0.6-2.7-1.5-3.6-2.7c-0.9-1.1-1.5-2.4-1.8-3.8
						c-0.3-1.4-0.2-2.8,0.4-4.1c0.5-1.3,1.5-2.5,2.9-3.6c1.9-1.4,4.1-1.8,6.6-1.4c2.5,0.5,4.7,1.3,6.6,2.5c2-1.9,4.2-3.5,6.4-4.9
						c2.3-1.4,4.6-2.4,7-3.1c2.4-0.7,4.9-0.9,7.5-0.6c2.6,0.3,5.2,1.1,7.9,2.5c1.3,0.7,2.6,1.5,3.7,2.6c1.2,1.1,2,2.3,2.4,3.8
						c0.7,2.2,0.7,4.1,0.1,5.8c-0.6,1.7-1.6,3-2.9,3.9c-1.3,0.9-2.9,1.3-4.7,1.2c-1.8-0.1-3.6-0.9-5.3-2.3c-0.6-0.3-1-0.5-1.2-0.7
						c-0.2-0.2-0.7-0.4-1.5-0.7c-1.4-0.2-2.8,0-4.1,0.7c-1.3,0.7-2.6,1.5-3.7,2.6c-1.2,1.1-2.3,2.2-3.2,3.4c-1,1.2-1.9,2.3-2.7,3.3
						l3.5,33.6c0.1,1.3,0,2.6-0.4,3.9c-0.6,2.1-1.7,3.6-3.3,4.6c-1.6,1-3.3,1.4-5.1,1.2c-1.8-0.2-3.3-0.9-4.8-2.2
						c-1.4-1.3-2.2-3-2.5-5.2l-3.9-36.9C151.2,107.4,151.2,107.3,151.2,106.7z"/>
				</g>
				<g class="st1">
					<path class="st2" d="M264.8,128.3c2.2,0,4,0.4,5.5,1.3c1.5,0.9,2.5,2,3.1,3.3c0.6,1.3,0.6,2.8,0.1,4.4
						c-0.5,1.6-1.7,3.1-3.5,4.6c-1.5,1.2-3.3,2-5.6,2.6c-2.2,0.5-4.3,0.9-6.1,1.1c-4.6,0.5-8.8,0.6-12.8,0.2
						c-3.9-0.3-7.5-1.2-10.6-2.6c-3.2-1.4-5.9-3.4-8.3-6c-2.4-2.6-4.4-5.9-6.1-10c-1.1-2.7-1.7-5.7-1.8-8.9
						c-0.1-3.2,0.2-6.3,0.9-9.4c0.7-3.1,1.7-6.1,3-8.9c1.3-2.9,2.9-5.3,4.6-7.5c2.2-2.6,5.2-4.8,9-6.5c3.8-1.7,7.8-2.8,12-3.3
						c4.2-0.5,8.4-0.3,12.5,0.4c4.1,0.8,7.5,2.3,10.2,4.5c2.3,1.8,4,4.1,5.3,6.9c1.3,2.7,1.9,5.5,2,8.3c0,2.8-0.6,5.5-1.8,8.1
						c-1.2,2.6-3.2,4.7-6,6.4c-2.7,1.6-5.5,2.8-8.4,3.4c-2.9,0.7-5.9,1.2-8.8,1.5c-3,0.3-6,0.4-9.1,0.4c-3,0-6,0.1-8.9,0.2
						c1.3,2.5,3,4.3,5.2,5.5c2.2,1.1,4.6,1.8,7.2,2.1c2.6,0.3,5.3,0.2,8.2-0.2c2.8-0.4,5.5-1,8.1-1.7L264.8,128.3z M244.3,99.7
						c-2.3,0.6-4.1,1.7-5.4,3.1c-1.4,1.4-2.6,3.6-3.8,6.5c2.4-0.1,5.1-0.2,8.1-0.3c3-0.1,5.8-0.2,8.5-0.5c2.7-0.2,5-0.7,7-1.3
						c2-0.6,3.1-1.5,3.4-2.7c0.2-0.7,0.2-1.4,0.2-2.1c-0.1-0.7-0.4-1.3-1-1.7c-2.2-1.5-4.6-2.2-7.3-2.4c-2.7-0.1-5,0.1-7,0.6
						L244.3,99.7z"/>
				</g>
				<g class="st1">
					<path class="st2" d="M318.2,145.6c-1.1,1.4-2.5,2.4-4,2.9c-1.5,0.5-3,0.5-4.6,0c-1.6-0.5-2.9-1.7-4-3.6
						c-0.4-0.7-0.8-1.5-1.1-2.3c-0.3-0.8-0.4-1.6-0.4-2.4v-34.9c-1.7,0-3.2-0.5-4.6-1.4c-1.4-0.9-2.4-2.1-3-3.4
						c-0.7-1.4-0.9-2.8-0.7-4.4c0.2-1.5,0.9-3,2.1-4.3c0.9-1,1.8-1.6,2.9-1.9c1-0.3,2.1-0.5,3.2-0.6c-0.1-2.7-0.2-5.4-0.2-8.1
						c0-2.7,0.2-5.3,0.6-8c0.5-4.2,1.8-7.7,3.7-10.6c1.9-2.9,4.4-5.2,7.2-6.8c2.9-1.6,6.1-2.5,9.6-2.8c3.5-0.3,7.2,0.3,11,1.6
						c1.6,0.5,3.1,1.2,4.6,2c1.5,0.8,2.8,1.8,3.9,3c0.8,0.9,1.4,1.9,1.7,3.1c0.4,1.2,0.4,2.4,0.2,3.6c-0.2,1.2-0.7,2.3-1.3,3.3
						c-0.7,1-1.6,1.8-2.9,2.3c-1.7,0.7-3.3,0.9-5,0.5c-1.6-0.4-3.2-0.9-4.8-1.7c-1-0.4-1.9-0.7-2.8-1.1c-0.9-0.4-1.8-0.6-2.8-0.8
						c-1-0.2-1.9,0-2.7,0.4c-0.8,0.4-1.5,1-2.1,1.8c-0.6,0.8-1,1.6-1.3,2.5c-0.3,0.9-0.5,1.8-0.5,2.7c-0.1,2-0.1,4.1-0.1,6.2
						c0,2.1,0.1,4.1,0.1,6.2c1.3-0.1,2.7-0.2,4.2-0.3c1.5-0.1,3-0.1,4.4-0.1s2.8,0,4,0.1c1.2,0.1,2.2,0.3,2.9,0.5
						c1.4,0.5,2.6,1.3,3.4,2.5c0.9,1.1,1.5,2.3,1.7,3.6c0.3,1.3,0.2,2.6-0.3,3.9c-0.5,1.3-1.3,2.5-2.6,3.4c-1.2,0.9-2.5,1.5-4,1.9
						c-1.5,0.4-3.1,0.6-4.8,0.7c-1.7,0.1-3.3,0.2-4.9,0.1c-1.6,0-3-0.1-4.2-0.1v35.4C320,142.5,319.3,144.2,318.2,145.6z"/>
				</g>
				<g class="st1">
					<path class="st2" d="M390.1,145.1c0.9,1,1.6,2.2,2.1,3.6c0.5,1.4,0.8,2.8,0.7,4.2c-0.1,1.4-0.5,2.6-1.3,3.8
						c-0.8,1.1-2,1.9-3.7,2.4c-1.4,0.3-2.8,0.3-4.4-0.1c-1.6-0.4-3.1-1.1-4.5-2c-1.5-0.9-2.8-2-3.8-3.2s-1.8-2.5-2.3-3.9
						c-0.1-0.5-0.2-1-0.3-1.6c0-0.6,0-1.1,0-1.5l6.4-73.3c0.2-2,1.1-3.7,2.8-4.9c1.7-1.3,3.4-2,5.3-2.1c0.9,0,1.8,0.2,2.8,0.6
						c1,0.4,1.9,1,2.7,1.8c0.8,0.7,1.5,1.6,2,2.5c0.5,0.9,0.7,1.9,0.6,2.8c-0.2,2.3-0.5,5.3-0.8,9.1c-0.3,3.8-0.7,7.9-1,12.4
						c-0.3,4.5-0.7,9.1-1.2,13.9c-0.4,4.8-0.8,9.4-1.3,13.8c-0.4,4.4-0.8,8.4-1.1,12.1c-0.3,3.7-0.6,6.6-0.9,8.8L390.1,145.1z"/>
				</g>
				<g class="st1">
					<path class="st2" d="M475,103.2c1.3-1.6,2.8-2.6,4.4-3.1c1.7-0.4,3.2-0.4,4.7,0.2c1.5,0.6,2.7,1.5,3.7,2.9
						c1,1.4,1.5,3.1,1.5,5.2c0,1.5-0.6,3.6-1.7,6.2c-1.1,2.6-2.4,5.3-3.9,8c-1.5,2.7-3,5.3-4.5,7.8c-1.5,2.5-2.7,4.4-3.6,5.8
						c-3.9,6.1-8,12.1-12.4,17.9c-4.4,5.8-8.9,11.6-13.4,17.3c-0.7,0.9-1.4,2-2.3,3.3c-0.9,1.3-1.8,2.6-2.8,4
						c-1,1.4-1.9,2.7-2.9,3.9c-1,1.2-1.9,2.1-2.6,2.6c-1.8,1.3-3.5,1.9-5.2,1.9c-1.7,0-3.2-0.4-4.4-1.3c-1.3-0.9-2.2-2.1-2.8-3.7
						c-0.6-1.6-0.7-3.4-0.2-5.5c0.2-0.8,0.7-1.8,1.5-2.9c0.8-1.2,1.7-2.4,2.7-3.6c1-1.2,1.9-2.4,2.9-3.5c1-1.1,1.7-2,2.3-2.8
						c2.2-2.6,4.2-5.3,6.3-8c2-2.7,4.1-5.3,6.1-8c-5.1-5.6-9.4-11.7-12.8-18.2c-3.4-6.5-5.8-13.5-7-20.9c-0.3-1.3-0.5-2.6-0.8-3.9
						c-0.3-1.3-0.2-2.6,0.1-3.9c0.4-1.5,1-2.7,1.8-3.8c0.8-1.1,1.8-1.9,3-2.5c1.2-0.6,2.4-0.8,3.8-0.7c1.4,0.1,2.7,0.6,4,1.5
						c1.1,0.8,1.8,1.8,2.3,2.9c0.5,1.2,0.9,2.4,1.1,3.8c0.3,1.3,0.4,2.7,0.6,4c0.1,1.4,0.3,2.6,0.6,3.7c2.3,9.2,6.5,17.3,12.8,24.4
						c3.3-4.9,6.3-9.8,9.1-14.9c2.8-5,5.3-10.2,7.7-15.5L475,103.2z"/>
				</g>
			</g>
			<g class="st1">
				<path class="st2" d="M121.8,253.3l-6.1-17.4l3.7-0.4l4,11.9l2-12.6l4.3-0.4l4.4,12.1l1.4-12.7l3.6-0.4l-2.5,18.3l-3.8,0.4
					l-4.9-12.9l-2.1,13.7L121.8,253.3z"/>
				<path class="st2" d="M154.3,245.8l3.5,0.2c-0.3,1.3-0.9,2.3-1.8,3.1c-0.9,0.8-2,1.2-3.4,1.3c-2.2,0.2-4-0.3-5.2-1.7
					c-1-1.1-1.6-2.5-1.7-4.3c-0.2-2.1,0.2-3.9,1.1-5.2c1-1.3,2.3-2.1,4-2.3c1.9-0.2,3.5,0.3,4.7,1.4c1.2,1.2,2,3,2.2,5.7l-8.5,0.9
					c0.1,1,0.5,1.8,1.1,2.3c0.6,0.5,1.3,0.7,2.1,0.6c0.5-0.1,1-0.2,1.3-0.6C154,246.9,154.2,246.4,154.3,245.8z M154.2,242.3
					c-0.1-1-0.5-1.7-1-2.2c-0.5-0.5-1.2-0.7-1.9-0.6c-0.7,0.1-1.3,0.4-1.8,1c-0.4,0.6-0.6,1.4-0.5,2.3L154.2,242.3z"/>
				<path class="st2" d="M166.1,248.7l-1.9-17.8l3.4-0.4l1.9,17.8L166.1,248.7z"/>
				<path class="st2" d="M188.4,237.2l-3.3,1c-0.2-0.7-0.5-1.1-0.9-1.4c-0.4-0.3-1-0.4-1.6-0.3c-0.8,0.1-1.5,0.5-1.9,1.1
					c-0.4,0.6-0.6,1.6-0.4,3c0.2,1.5,0.5,2.6,1.1,3.2c0.6,0.6,1.3,0.8,2.2,0.7c0.6-0.1,1.2-0.3,1.5-0.7s0.6-1.1,0.7-2l3.4,0.2
					c-0.2,1.6-0.7,2.8-1.6,3.7c-0.9,0.9-2.2,1.4-3.8,1.6c-1.9,0.2-3.5-0.2-4.7-1.3c-1.2-1.1-2-2.7-2.2-4.8c-0.2-2.1,0.2-3.8,1.2-5.1
					c1-1.3,2.5-2.1,4.4-2.3c1.6-0.2,2.9,0,3.9,0.6C187,234.9,187.8,235.8,188.4,237.2z"/>
				<path class="st2" d="M195.4,238.9c-0.1-1.1,0-2.3,0.5-3.4c0.4-1.1,1.2-2,2.1-2.7c1-0.7,2.1-1.1,3.3-1.2c2-0.2,3.6,0.3,5,1.4
					c1.4,1.1,2.2,2.7,2.4,4.6c0.2,2-0.3,3.6-1.4,5c-1.1,1.4-2.6,2.2-4.5,2.4c-1.2,0.1-2.3,0-3.5-0.4c-1.1-0.4-2-1.1-2.7-2.1
					C196,241.6,195.6,240.4,195.4,238.9z M199,238.7c0.1,1.3,0.5,2.2,1.2,2.8c0.7,0.6,1.5,0.9,2.4,0.8s1.6-0.5,2.1-1.3
					s0.7-1.8,0.6-3.1c-0.1-1.3-0.5-2.2-1.2-2.8c-0.7-0.6-1.5-0.9-2.3-0.8s-1.6,0.5-2.1,1.3C199,236.4,198.8,237.4,199,238.7z"/>
				<path class="st2" d="M215.5,230.5l3.1-0.3l0.2,1.8c1-1.5,2.2-2.3,3.8-2.5c0.8-0.1,1.6,0,2.2,0.3c0.6,0.3,1.2,0.7,1.7,1.4
					c0.5-0.7,1.1-1.3,1.7-1.7c0.6-0.4,1.3-0.7,2-0.7c0.9-0.1,1.8,0,2.5,0.3c0.7,0.3,1.2,0.8,1.6,1.5c0.3,0.5,0.5,1.4,0.6,2.6
					l0.9,8.2l-3.4,0.4l-0.8-7.4c-0.1-1.3-0.3-2.1-0.6-2.4c-0.4-0.5-0.9-0.6-1.5-0.6c-0.5,0.1-0.9,0.2-1.3,0.6
					c-0.4,0.3-0.6,0.8-0.8,1.4c-0.1,0.6-0.1,1.5,0,2.7l0.7,6.2l-3.4,0.4l-0.7-7.1c-0.1-1.3-0.3-2.1-0.4-2.4
					c-0.2-0.4-0.4-0.6-0.7-0.8c-0.3-0.2-0.6-0.2-1.1-0.2c-0.5,0.1-1,0.2-1.4,0.6c-0.4,0.3-0.7,0.8-0.8,1.3c-0.1,0.6-0.1,1.4,0,2.7
					l0.7,6.3l-3.4,0.4L215.5,230.5z"/>
				<path class="st2" d="M251.3,235.6l3.5,0.2c-0.3,1.3-0.9,2.3-1.8,3.1c-0.9,0.8-2,1.2-3.4,1.3c-2.2,0.2-4-0.3-5.2-1.7
					c-1-1.1-1.6-2.5-1.7-4.3c-0.2-2.1,0.2-3.9,1.1-5.2c1-1.3,2.3-2.1,4-2.3c1.9-0.2,3.5,0.3,4.7,1.4c1.2,1.2,2,3,2.2,5.7l-8.5,0.9
					c0.1,1,0.5,1.8,1.1,2.3c0.6,0.5,1.3,0.7,2.1,0.6c0.5-0.1,1-0.2,1.3-0.6C251,236.7,251.2,236.2,251.3,235.6z M251.1,232.1
					c-0.1-1-0.5-1.7-1-2.2c-0.5-0.5-1.2-0.7-1.9-0.6c-0.7,0.1-1.3,0.4-1.8,1c-0.4,0.6-0.6,1.4-0.5,2.3L251.1,232.1z"/>
				<path class="st2" d="M279.6,223.7l0.3,2.7l-2.3,0.2l0.5,5.2c0.1,1.1,0.2,1.7,0.3,1.8c0.1,0.2,0.2,0.3,0.3,0.4
					c0.2,0.1,0.4,0.1,0.6,0.1c0.3,0,0.8-0.2,1.3-0.5l0.6,2.6c-0.8,0.4-1.6,0.7-2.6,0.8c-0.6,0.1-1.2,0-1.7-0.1
					c-0.5-0.2-0.9-0.4-1.2-0.7c-0.3-0.3-0.5-0.7-0.6-1.3c-0.1-0.4-0.2-1.2-0.4-2.4l-0.6-5.6l-1.6,0.2l-0.3-2.7l1.6-0.2l-0.3-2.6
					l3.2-2.4l0.5,4.6L279.6,223.7z"/>
				<path class="st2" d="M286.9,229.3c-0.1-1.1,0-2.3,0.5-3.4c0.4-1.1,1.2-2,2.1-2.7c1-0.7,2.1-1.1,3.3-1.2c2-0.2,3.6,0.3,5,1.4
					c1.4,1.1,2.2,2.7,2.4,4.6c0.2,2-0.3,3.6-1.4,5c-1.1,1.4-2.6,2.2-4.6,2.4c-1.2,0.1-2.3,0-3.5-0.4c-1.1-0.4-2-1.1-2.7-2.1
					C287.4,232,287,230.8,286.9,229.3z M290.4,229.1c0.1,1.3,0.5,2.2,1.2,2.8s1.5,0.9,2.4,0.8c0.9-0.1,1.6-0.5,2.1-1.3
					c0.5-0.7,0.7-1.8,0.6-3.1c-0.1-1.3-0.5-2.2-1.2-2.8c-0.7-0.6-1.5-0.9-2.3-0.8c-0.9,0.1-1.6,0.5-2.1,1.3
					C290.4,226.8,290.2,227.8,290.4,229.1z"/>
			</g>
		</g>
	</g>
</g>
</svg>
