<?xml version="1.0" encoding="UTF-8"?>
<svg width="83px" height="83px" viewBox="0 0 83 83" version="1.1" xmlns="http://www.w3.org/2000/svg" xmlns:xlink="http://www.w3.org/1999/xlink">
    <!-- Generator: Sketch 57.1 (83088) - https://sketch.com -->
    <title>Group 4 Copy 88</title>
    <desc>Created with Sketch.</desc>
    <g id="Symbols" stroke="none" stroke-width="1" fill="none" fill-rule="evenodd">
        <g id="OutlineFrieflyIcon" transform="translate(-23.000000, -22.000000)">
            <g id="Group-4-Copy-88">
                <rect id="Rectangle" x="0" y="0" width="128" height="128"></rect>
                <path d="M64.0625,35.75 C74.7284992,35.75 83.375,44.4021867 83.375,55.0751998 C83.375,57.4309772 82.9045615,59.5713588 82.0675209,61.47666 C82.8160446,60.8338903 83.627305,60.246515 84.4991437,59.7226614 C90.281142,56.2484863 97.2791143,56.4384886 102.937194,59.6001247 L103.27505,59.7933833 L103.279009,59.9388849 C103.429487,66.4347506 100.310877,72.7235352 94.5156542,76.2056564 C93.9275241,76.5590407 93.326813,76.8745137 92.7162106,77.1528032 C94.1908708,78.7501592 95.2190336,80.7362507 95.6992811,82.8913734 L95.7828818,83.2973861 L95.6494431,83.4200299 C92.4177381,86.337387 87.848104,87.4774053 83.5696781,86.0042251 C81.1814581,85.181895 79.2230333,83.6620709 77.828256,81.7336127 C77.2574601,87.9419897 71.2500157,90.75 63.9964115,90.75 C56.7435898,90.75 50.8561402,87.9425955 50.2939475,81.7357806 C48.8952981,83.6563908 46.9217621,85.1778299 44.5157109,86.0062998 C40.3004205,87.4577407 35.8217561,86.415801 32.6501829,83.660077 L32.448436,83.4795855 C32.9701038,80.8855873 34.3175258,78.5120277 36.3012704,76.7542868 C35.4970598,76.4193255 34.7068822,76.0208825 33.9374889,75.5585844 C28.2172989,72.1215475 25.0741667,66.0131146 25.1117231,59.7284564 L25.115777,59.4804528 C30.7109697,56.289495 37.7677164,56.110544 43.6213776,59.6277784 C44.4691092,60.137147 45.2602403,60.7051879 45.9928062,61.3237797 C45.1958574,59.4578693 44.75,57.3686051 44.75,55.0751998 C44.75,44.4021867 53.3965008,35.75 64.0625,35.75 Z M77.5756638,67.3472834 L77.3398438,67.5399798 C73.71875,70.4370532 68.890625,72 64.0625,72 C59.1939723,72 54.3254446,70.4107857 50.6945044,67.4669698 C51.6638499,69.5297135 52.2425221,71.764001 52.4021036,74.0468753 C53.0847772,73.0732433 53.9138143,72.1917813 54.8601414,71.4265339 C57.3335189,72.5303169 60.6355094,73.125 63.9375,73.125 C67.2884221,73.125 70.6393443,72.5125614 73.1248441,71.3788168 L73.1741215,71.3538011 C74.1858248,72.1576573 75.0665377,73.0931637 75.7835472,74.1307299 C75.9558286,71.7648589 76.5630673,69.4605579 77.5756638,67.3472834 Z" id="Combined-Shape" stroke="#4aa810" stroke-width="3.875"></path>
                <path d="M58.210726,37.6722743 C57.6448806,34.2896662 56.2885112,31.1982058 54.1416178,28.3978932 C51.9947245,25.5975806 49.3094272,24.3758817 46.085726,24.7327965" id="Line" stroke="#4aa810" stroke-width="3.875" stroke-linecap="round" transform="translate(52.148226, 31.172274) rotate(-7.000000) translate(-52.148226, -31.172274) "></path>
                <path d="M83.1448316,36.9804012 C82.5673192,33.5977931 81.1829834,30.5063327 78.9918242,27.7060201 C76.800665,24.9057075 74.0600008,23.6840086 70.7698316,24.0409234" id="Line-Copy" stroke="#4aa810" stroke-width="3.875" stroke-linecap="round" transform="translate(76.957332, 30.480401) scale(-1, 1) rotate(-7.000000) translate(-76.957332, -30.480401) "></path>
                <path d="M52.4654043,93.9068264 L48.0625,97.2818264" id="Line-2" stroke="#4aa810" stroke-width="3.875" stroke-linecap="round"></path>
                <path d="M64.0485479,97.2971632 L64.0485479,102.952837" id="Line-2-Copy" stroke="#4aa810" stroke-width="3.875" stroke-linecap="round"></path>
                <path d="M76.7985479,93.1568264 L78.9235479,98.1568264" id="Line-2-Copy-2" stroke="#4aa810" stroke-width="3.875" stroke-linecap="round" transform="translate(77.861048, 95.656826) rotate(-29.974508) translate(-77.861048, -95.656826) "></path>
            </g>
        </g>
    </g>
</svg>