<?xml version="1.0" encoding="UTF-8"?>
<svg width="1194px" height="834px" viewBox="0 0 1194 834" version="1.1" xmlns="http://www.w3.org/2000/svg" xmlns:xlink="http://www.w3.org/1999/xlink">
    <!-- Generator: Sketch 57.1 (83088) - https://sketch.com -->
    <title>Background</title>
    <desc>Created with Sketch.</desc>
    <defs>
        <linearGradient x1="50%" y1="0%" x2="50%" y2="100%" id="linearGradient-1">
            <stop stop-color="#382EB8" offset="0%"></stop>
            <stop stop-color="#7166FF" offset="100%"></stop>
        </linearGradient>
        <rect id="path-2" x="41" y="0" width="1194" height="834"></rect>
        <filter x="-0.6%" y="-0.6%" width="101.2%" height="101.7%" filterUnits="objectBoundingBox" id="filter-3">
            <feOffset dx="0" dy="2" in="SourceAlpha" result="shadowOffsetOuter1"></feOffset>
            <feGaussianBlur stdDeviation="2" in="shadowOffsetOuter1" result="shadowBlurOuter1"></feGaussianBlur>
            <feColorMatrix values="0 0 0 0 0   0 0 0 0 0   0 0 0 0 0  0 0 0 0.5 0" type="matrix" in="shadowBlurOuter1"></feColorMatrix>
        </filter>
    </defs>
    <g id="World-Draft" stroke="none" stroke-width="1" fill="none" fill-rule="evenodd">
        <g id="FireflyWorldPage">
            <g id="Background" transform="translate(-41.000000, 0.000000)">
                <g id="Rectangle" opacity="0.852469308">
                    <use fill="black" fill-opacity="1" filter="url(#filter-3)" xlink:href="#path-2"></use>
                    <use fill="url(#linearGradient-1)" fill-rule="evenodd" xlink:href="#path-2"></use>
                </g>
                <path d="M1136,834 L905,834 L905,712 L905.039183,712.015728 C904.788062,706.917206 905.73893,701.974556 908.037924,697.462526 C917.691107,678.517088 947.457005,674.337991 974.521917,688.128253 C976.678113,689.226889 978.752116,690.406431 980.738457,691.656595 C985.635414,676.797484 995.803606,667 1014.96384,667 C1034.59293,667 1048.32344,684.29731 1048.81144,700.200567 C1052.22958,696.842718 1055.43008,693.203955 1058.04328,689 C1070.29116,669.296384 1104.62347,694.915114 1079.21105,729.505134 C1083.06626,727.714095 1086.72572,725.453896 1089.94141,722.432004 C1108.77734,704.731195 1149.18262,731.277344 1135.80078,756 C1135.78776,756.024054 1135.77475,756.048104 1135.76176,756.072148 L1136,756 C1160.37997,748.639485 1170.56331,763.752506 1173.7779,781.035429 L1174.01521,780.786092 C1180.46732,774.134001 1189.50088,770 1199.5,770 C1219.10611,770 1235,785.893891 1235,805.5 C1235,819.443706 1226.96097,827.969237 1215.26485,831.730676 L1221.14842,834 L1199.5,834 L1199.5,834 L1136,834 L1136,834 Z" id="Combined-Shape" fill-opacity="0.5" fill="#152F04" transform="translate(1070.000000, 750.500000) scale(-1, 1) translate(-1070.000000, -750.500000) "></path>
                <path d="M88,144 C110.654762,144 129.310581,156.841134 131.73362,173.348026 C139.699981,172.478594 148.395548,172 157.5,172 C195.88379,172 227,180.50659 227,191 C227,201.49341 195.88379,210 157.5,210 C139.629784,210 123.334833,208.156176 111.021777,205.126456 C104.326216,208.217467 96.4406631,210 88,210 C79.1101991,210 70.8361565,208.022719 63.9170694,204.622554 C57.9376597,206.142731 51.1690557,207 44,207 C19.699471,207 0,197.150264 0,185 C0,172.849736 19.699471,163 44,163 C45.3782797,163 46.741758,163.031686 48.0876801,163.093681 C55.0830511,151.816893 70.3243701,144 88,144 Z" id="Combined-Shape" fill-opacity="0.5" fill="#7166FF"></path>
                <g id="moon-stars-solid" transform="translate(194.000000, 0.000000)" fill="#FBE76A" fill-rule="nonzero">
                    <path d="M101.217188,129.91875 C72.8507813,135.311719 46.8304688,113.557031 46.8304688,84.9164062 C46.8304688,68.4023438 55.6664063,53.2289062 70.0171875,45.0632812 C72.2414063,43.8140625 71.6625,40.4625 69.1640625,39.975 C33.1195313,33.3328125 0,60.9375 0,97.5 C0,129.796875 26.1421875,156 58.4390625,156 C76.4765625,156 92.9296875,147.803906 103.8375,134.336719 C105.452344,132.35625 103.685156,129.43125 101.217188,129.91875 Z M92.625,29.25 L97.5,19.5 L107.25,14.625 L97.5,9.75 L92.625,0 L87.75,9.75 L78,14.625 L87.75,19.5 L92.625,29.25 Z M139.760156,55.2398438 L131.625,39 L123.489844,55.2398438 L107.25,63.375 L123.489844,71.5101563 L131.625,87.75 L139.760156,71.5101563 L156,63.375 L139.760156,55.2398438 Z" id="Shape"></path>
                </g>
            </g>
        </g>
    </g>
</svg>