<?xml version="1.0" encoding="UTF-8"?>
<svg width="1024px" height="1024px" viewBox="0 0 1024 1024" version="1.1" xmlns="http://www.w3.org/2000/svg" xmlns:xlink="http://www.w3.org/1999/xlink">
    <!-- Generator: Sketch 55.2 (78181) - https://sketchapp.com -->
    <title>BodyLight</title>
    <desc>Created with Sketch.</desc>
    <g id="BodyLight" stroke="none" strokeWidth="1" fill="none" fillRule="evenodd">
        <rect id="Rectangle" x="0" y="0" width="1024" height="1024"></rect>
        <path d="M630.214587,636.877779 C630.733367,640.984812 631,645.161895 631,649.395809 C631,709.119263 577.378757,736 511.933014,736 C446.487272,736 394,709.119263 394,649.395809 C394,643.50286 394.51653,637.720005 395.510528,632.08289 C429.080232,655.437043 472.790116,668 516.5,668 C557.116979,668 597.733958,657.152047 630.214587,636.877779 Z" id="Combined-Shape-Copy-5" fill="#FBE66A"></path>
        <path d="M625.652526,677.59244 C592.973739,694.219612 553.498662,703.070886 514.023585,703.070886 C472.958952,703.070886 431.894318,693.492426 398.480485,675.54609 C395.56108,667.333756 394,658.19377 394,648.096152 C394,642.48732 394.486853,636.98022 395.424815,631.606829 C428.840953,654.124401 472.137061,666.229794 515.433168,666.229794 C556.462324,666.229794 597.49148,655.358873 630.112749,635.057962 C630.698441,639.33062 631,643.68188 631,648.096152 C631,659.040491 629.126519,668.859863 625.652526,677.59244 Z" id="Combined-Shape" fill="#F9DC28"></path>
        <path d="M630.997372,642.147021 C597.328908,658.953756 555.676246,667.932652 514.023585,667.932652 C471.106447,667.932652 428.189308,658.400324 394.00581,640.594772 C394.164909,627.858235 397.586781,615.734434 403.646938,604.713436 C435.782882,621.525855 475.608025,630.510014 515.433168,630.510014 C553.367946,630.510014 591.302723,622.358509 622.592092,607.054486 C628.016623,617.714255 631,629.346357 631,641.52528 C631,641.732989 630.999123,641.940236 630.997372,642.147021 Z" id="Combined-Shape-Copy-7" fill="#DFC104"></path>
    </g>
</svg>