<?xml version="1.0" encoding="UTF-8"?>
<svg width="31px" height="36px" viewBox="0 0 31 36" version="1.1" xmlns="http://www.w3.org/2000/svg" xmlns:xlink="http://www.w3.org/1999/xlink">
    <!-- Generator: Sketch 57.1 (83088) - https://sketch.com -->
    <title>lock-alt-solid</title>
    <desc>Created with Sketch.</desc>
    <g id="Canvas" stroke="none" stroke-width="1" fill="none" fill-rule="evenodd">
        <g transform="translate(-56.000000, -759.000000)" fill="#FFFFFF" fill-rule="nonzero" id="ToolBar">
            <g>
                <g id="NumberBlock" transform="translate(29.000000, 743.000000)">
                    <g id="lock-alt-solid" transform="translate(27.000000, 16.000000)">
                        <path d="M27.6785714,15.5 L26.0178571,15.5 L26.0178571,10.5178571 C26.0178571,4.71919643 21.2986607,6.39488462e-14 15.5,6.39488462e-14 C9.70133929,6.39488462e-14 4.98214286,4.71919643 4.98214286,10.5178571 L4.98214286,15.5 L3.32142857,15.5 C1.48772321,15.5 0,16.9877232 0,18.8214286 L0,32.1071429 C0,33.9408482 1.48772321,35.4285714 3.32142857,35.4285714 L27.6785714,35.4285714 C29.5122768,35.4285714 31,33.9408482 31,32.1071429 L31,18.8214286 C31,16.9877232 29.5122768,15.5 27.6785714,15.5 Z M18.2678571,27.125 C18.2678571,28.6542411 17.0292411,29.8928571 15.5,29.8928571 C13.9707589,29.8928571 12.7321429,28.6542411 12.7321429,27.125 L12.7321429,23.8035714 C12.7321429,22.2743304 13.9707589,21.0357143 15.5,21.0357143 C17.0292411,21.0357143 18.2678571,22.2743304 18.2678571,23.8035714 L18.2678571,27.125 Z M20.4821429,15.5 L10.5178571,15.5 L10.5178571,10.5178571 C10.5178571,7.77075893 12.7529018,5.53571429 15.5,5.53571429 C18.2470982,5.53571429 20.4821429,7.77075893 20.4821429,10.5178571 L20.4821429,15.5 Z" id="Shape"></path>
                    </g>
                </g>
            </g>
        </g>
    </g>
</svg>