<?xml version="1.0" encoding="UTF-8"?>
<svg width="35px" height="35px" viewBox="0 0 35 35" version="1.1" xmlns="http://www.w3.org/2000/svg" xmlns:xlink="http://www.w3.org/1999/xlink">
    <!-- Generator: Sketch 56.2 (81672) - https://sketch.com -->
    <title>NumberIcon1</title>
    <desc>Created with Sketch.</desc>
    <g id="Style-Guide" stroke="none" stroke-width="1" fill="none" fill-rule="evenodd">
        <g id="CodingBlocks" transform="translate(-813.000000, -1301.000000)" fill="#FFFFFF">
            <g id="Group-6" transform="translate(787.000000, 243.000000)">
                <g id="NumberBlock" transform="translate(3.000000, 1035.000000)">
                    <path d="M40.5,58 C30.8350169,58 23,50.1649831 23,40.5 C23,30.8350169 30.8350169,23 40.5,23 C50.1649831,23 58,30.8350169 58,40.5 C58,50.1649831 50.1649831,58 40.5,58 Z M46.03,47.88 L42.88,47.88 L42.88,31.62 C42.88,31.019997 42.7100017,30.5500017 42.37,30.21 C42.0299983,29.8699983 41.5800028,29.7 41.02,29.7 C40.4799973,29.7 39.910003,29.8799982 39.31,30.24 L34.66,33.12 C34.1399974,33.4400016 33.88,33.8899971 33.88,34.47 C33.88,34.9100022 34.0249985,35.3099982 34.315,35.67 C34.6050015,36.0300018 34.9599979,36.21 35.38,36.21 C35.6000011,36.21 35.8499986,36.1300008 36.13,35.97 L39.01,34.2 L39.01,47.88 L35.89,47.88 C34.6699939,47.88 34.06,48.3899949 34.06,49.41 C34.06,50.4700053 34.6699939,51 35.89,51 L46.03,51 C47.230006,51 47.83,50.4700053 47.83,49.41 C47.83,48.3899949 47.230006,47.88 46.03,47.88 Z" id="NumberIcon1"></path>
                </g>
            </g>
        </g>
    </g>
</svg>