<?xml version="1.0" encoding="UTF-8"?>
<svg width="35px" height="35px" viewBox="0 0 35 35" version="1.1" xmlns="http://www.w3.org/2000/svg" xmlns:xlink="http://www.w3.org/1999/xlink">
    <!-- Generator: Sketch 56.2 (81672) - https://sketch.com -->
    <title>NumberIcon6</title>
    <desc>Created with Sketch.</desc>
    <g id="Style-Guide" stroke="none" stroke-width="1" fill="none" fill-rule="evenodd">
        <g id="CodingBlocks" transform="translate(-813.000000, -1301.000000)" fill="#FFFFFF">
            <g id="Group-6" transform="translate(787.000000, 243.000000)">
                <g id="NumberBlock" transform="translate(3.000000, 1035.000000)">
                    <path d="M40.5,58 C30.8350169,58 23,50.1649831 23,40.5 C23,30.8350169 30.8350169,23 40.5,23 C50.1649831,23 58,30.8350169 58,40.5 C58,50.1649831 50.1649831,58 40.5,58 Z M41.29,37.44 C40.1499943,37.44 39.1200046,37.7049973 38.2,38.235 C37.2799954,38.7650026 36.5900023,39.4799955 36.13,40.38 C36.1700002,37.9399878 36.6099958,36.0450067 37.45,34.695 C38.2900042,33.3449933 39.4399927,32.67 40.9,32.67 C42.2000065,32.67 43.6799917,33.2499942 45.34,34.41 C45.6000013,34.5700008 45.8199991,34.6849997 46,34.755 C46.1800009,34.8250003 46.369999,34.86 46.57,34.86 C46.9100017,34.86 47.2049988,34.7050015 47.455,34.395 C47.7050012,34.0849985 47.83,33.7100022 47.83,33.27 C47.83,32.9699985 47.7750006,32.715001 47.665,32.505 C47.5549994,32.294999 47.3700013,32.0800011 47.11,31.86 C46.309996,31.1599965 45.3350058,30.6050021 44.185,30.195 C43.0349942,29.784998 41.8900057,29.58 40.75,29.58 C39.0299914,29.58 37.5350064,30.0299955 36.265,30.93 C34.9949936,31.8300045 34.0200034,33.1249916 33.34,34.815 C32.6599966,36.5050085 32.32,38.4999885 32.32,40.8 C32.32,44.1600168 33.0449927,46.744991 34.495,48.555 C35.9450073,50.365009 38.0099866,51.27 40.69,51.27 C42.0500068,51.27 43.2649946,50.970003 44.335,50.37 C45.4050053,49.769997 46.244997,48.9350053 46.855,47.865 C47.465003,46.7949946 47.77,45.5800068 47.77,44.22 C47.77,42.8999934 47.4950027,41.7250052 46.945,40.695 C46.3949973,39.6649948 45.6300049,38.8650028 44.65,38.295 C43.6699951,37.7249972 42.5500063,37.44 41.29,37.44 Z M40.48,48.21 C39.3599944,48.21 38.4550034,47.8550035 37.765,47.145 C37.0749966,46.4349964 36.73,45.5000058 36.73,44.34 C36.73,43.1999943 37.0749966,42.2750036 37.765,41.565 C38.4550034,40.8549965 39.3599944,40.5 40.48,40.5 C41.5800055,40.5 42.4599967,40.8499965 43.12,41.55 C43.7800033,42.2500035 44.11,43.1799942 44.11,44.34 C44.11,45.5000058 43.7800033,46.4349964 43.12,47.145 C42.4599967,47.8550035 41.5800055,48.21 40.48,48.21 Z" id="NumberIcon6"></path>
                </g>
            </g>
        </g>
    </g>
</svg>