<?xml version="1.0" encoding="UTF-8"?>
<svg width="35px" height="35px" viewBox="0 0 35 35" version="1.1" xmlns="http://www.w3.org/2000/svg" xmlns:xlink="http://www.w3.org/1999/xlink">
    <!-- Generator: Sketch 56.2 (81672) - https://sketch.com -->
    <title>NumberIcon9</title>
    <desc>Created with Sketch.</desc>
    <g id="Style-Guide" stroke="none" stroke-width="1" fill="none" fill-rule="evenodd">
        <g id="CodingBlocks" transform="translate(-1574.000000, -1301.000000)" fill="#FFFFFF">
            <g id="Group-6" transform="translate(787.000000, 243.000000)">
                <g id="NumberBlock" transform="translate(764.000000, 1035.000000)">
                    <path d="M40.5,58 C30.8350169,58 23,50.1649831 23,40.5 C23,30.8350169 30.8350169,23 40.5,23 C50.1649831,23 58,30.8350169 58,40.5 C58,50.1649831 50.1649831,58 40.5,58 Z M40.31,29.58 C38.9499932,29.58 37.7350054,29.879997 36.665,30.48 C35.5949947,31.080003 34.755003,31.9149946 34.145,32.985 C33.534997,34.0550054 33.23,35.2699932 33.23,36.63 C33.23,37.9500066 33.5049973,39.1249949 34.055,40.155 C34.6050027,41.1850052 35.3699951,41.9849971 36.35,42.555 C37.3300049,43.1250029 38.4499937,43.41 39.71,43.41 C40.8500057,43.41 41.8799954,43.1450027 42.8,42.615 C43.7200046,42.0849974 44.4099977,41.3700045 44.87,40.47 C44.8299998,42.9100122 44.3900042,44.8049932 43.55,46.155 C42.7099958,47.5050067 41.5600073,48.18 40.1,48.18 C38.7999935,48.18 37.3200083,47.6000058 35.66,46.44 C35.3999987,46.2799992 35.1800009,46.1650003 35,46.095 C34.8199991,46.0249996 34.630001,45.99 34.43,45.99 C34.0899983,45.99 33.7950012,46.1449985 33.545,46.455 C33.2949987,46.7650016 33.17,47.1399978 33.17,47.58 C33.17,47.8800015 33.2249994,48.1349989 33.335,48.345 C33.4450006,48.5550011 33.6299987,48.7699989 33.89,48.99 C34.690004,49.6900035 35.6649942,50.2449979 36.815,50.655 C37.9650058,51.0650021 39.1099943,51.27 40.25,51.27 C41.9700086,51.27 43.4649936,50.8200045 44.735,49.92 C46.0050064,49.0199955 46.9799966,47.7250085 47.66,46.035 C48.3400034,44.3449916 48.68,42.3500115 48.68,40.05 C48.68,36.6899832 47.9550072,34.105009 46.505,32.295 C45.0549927,30.484991 42.9900134,29.58 40.31,29.58 Z M40.52,40.35 C39.4199945,40.35 38.5400033,40.0000035 37.88,39.3 C37.2199967,38.5999965 36.89,37.6700058 36.89,36.51 C36.89,35.3499942 37.2199967,34.4150036 37.88,33.705 C38.5400033,32.9949965 39.4199945,32.64 40.52,32.64 C41.6400056,32.64 42.5449966,32.9949965 43.235,33.705 C43.9250034,34.4150036 44.27,35.3499942 44.27,36.51 C44.27,37.6500057 43.9250034,38.5749965 43.235,39.285 C42.5449966,39.9950035 41.6400056,40.35 40.52,40.35 Z" id="NumberIcon9"></path>
                </g>
            </g>
        </g>
    </g>
</svg>