<?xml version="1.0" encoding="UTF-8"?>
<svg width="35px" height="35px" viewBox="0 0 35 35" version="1.1" xmlns="http://www.w3.org/2000/svg" xmlns:xlink="http://www.w3.org/1999/xlink">
    <!-- Generator: Sketch 56.2 (81672) - https://sketch.com -->
    <title>NumberIcon4</title>
    <desc>Created with Sketch.</desc>
    <g id="Style-Guide" stroke="none" stroke-width="1" fill="none" fill-rule="evenodd">
        <g id="CodingBlocks" transform="translate(-813.000000, -1301.000000)" fill="#FFFFFF">
            <g id="Group-6" transform="translate(787.000000, 243.000000)">
                <g id="NumberBlock" transform="translate(3.000000, 1035.000000)">
                    <path d="M40.5,58 C30.8350169,58 23,50.1649831 23,40.5 C23,30.8350169 30.8350169,23 40.5,23 C50.1649831,23 58,30.8350169 58,40.5 C58,50.1649831 50.1649831,58 40.5,58 Z M46.75,43.86 L45.22,43.86 L45.22,31.62 C45.22,30.9999969 45.0300019,30.5200017 44.65,30.18 C44.2699981,29.8399983 43.8200026,29.67 43.3,29.67 C42.9799984,29.67 42.6700015,29.7449992 42.37,29.895 C42.0699985,30.0450007 41.820001,30.2599986 41.62,30.54 L32.35,43.86 C32.0299984,44.3000022 31.87,44.7599976 31.87,45.24 C31.87,45.7000023 32.0199985,46.0849985 32.32,46.395 C32.6200015,46.7050015 33.0399973,46.86 33.58,46.86 L41.44,46.86 L41.44,49.23 C41.44,49.8500031 41.6149982,50.3299983 41.965,50.67 C42.3150018,51.0100017 42.7699972,51.18 43.33,51.18 C43.8900028,51.18 44.3449983,51.0100017 44.695,50.67 C45.0450017,50.3299983 45.22,49.8500031 45.22,49.23 L45.22,46.86 L46.75,46.86 C47.950006,46.86 48.55,46.360005 48.55,45.36 C48.55,44.8799976 48.4000015,44.5100013 48.1,44.25 C47.7999985,43.9899987 47.350003,43.86 46.75,43.86 Z M35.86,43.86 L41.44,35.79 L41.44,43.86 L35.86,43.86 Z" id="NumberIcon4"></path>
                </g>
            </g>
        </g>
    </g>
</svg>