<?xml version="1.0" encoding="UTF-8"?>
<svg width="35px" height="35px" viewBox="0 0 35 35" version="1.1" xmlns="http://www.w3.org/2000/svg" xmlns:xlink="http://www.w3.org/1999/xlink">
    <!-- Generator: Sketch 56.2 (81672) - https://sketch.com -->
    <title>NumberIcon7</title>
    <desc>Created with Sketch.</desc>
    <g id="Style-Guide" stroke="none" stroke-width="1" fill="none" fill-rule="evenodd">
        <g id="CodingBlocks" transform="translate(-813.000000, -1301.000000)" fill="#FFFFFF">
            <g id="Group-6" transform="translate(787.000000, 243.000000)">
                <g id="NumberBlock" transform="translate(3.000000, 1035.000000)">
                    <path d="M40.5,58 C30.8350169,58 23,50.1649831 23,40.5 C23,30.8350169 30.8350169,23 40.5,23 C50.1649831,23 58,30.8350169 58,40.5 C58,50.1649831 50.1649831,58 40.5,58 Z M47.09,29.85 L35.09,29.85 C33.889994,29.85 33.29,30.3799947 33.29,31.44 C33.29,32.4600051 33.889994,32.97 35.09,32.97 L44.15,32.97 L35.54,48.51 C35.339999,48.8500017 35.24,49.1899983 35.24,49.53 C35.24,50.0100024 35.4249982,50.4149984 35.795,50.745 C36.1650018,51.0750017 36.5899976,51.24 37.07,51.24 C37.7700035,51.24 38.319998,50.9000034 38.72,50.22 L48.29,32.85 C48.5700014,32.3499975 48.71,31.8700023 48.71,31.41 C48.71,30.9499977 48.5700014,30.5750015 48.29,30.285 C48.0099986,29.9949985 47.6100026,29.85 47.09,29.85 Z" id="NumberIcon7"></path>
                </g>
            </g>
        </g>
    </g>
</svg>