<?xml version="1.0" encoding="UTF-8"?>
<svg width="29px" height="33px" viewBox="0 0 29 33" version="1.1" xmlns="http://www.w3.org/2000/svg" xmlns:xlink="http://www.w3.org/1999/xlink">
    <!-- Generator: Sketch 57.1 (83088) - https://sketch.com -->
    <title>QuestionMarkBook</title>
    <desc>Created with Sketch.</desc>
    <g id="Canvas" stroke="none" stroke-width="1" fill="none" fill-rule="evenodd">
        <g transform="translate(-1018.000000, -42.000000)" fill="#D0CCFF" fill-rule="nonzero" id="QuestionMarkBook">
            <g transform="translate(1018.000000, 42.000000)">
                <path d="M27.3428571,0 C28.3785714,0 29,0.61875 29,1.65 L29,1.65 L29,23.1 C29,23.71875 28.7928571,24.13125 28.3785714,24.3375 C28.1714286,25.1625 28.1714286,28.05 28.3785714,29.08125 C28.7928571,29.49375 29,29.90625 29,30.31875 L29,30.31875 L29,31.35 C29,32.38125 28.1714286,33 27.3428571,33 L27.3428571,33 L6.21428571,33 C2.69285714,33 0,30.31875 0,26.8125 L0,26.8125 L0,6.1875 C0,2.68125 2.69285714,0 6.21428571,0 L6.21428571,0 Z M24.65,24.75 L6.21428571,24.75 C5.17857143,24.75 4.14285714,25.575 4.14285714,26.8125 C4.14285714,28.05 4.97142857,28.875 6.21428571,28.875 L6.21428571,28.875 L24.65,28.875 L24.65,24.75 Z M14.4622232,16.2913605 C13.1256239,16.2913605 12.038211,17.3856059 12.038211,18.7306035 C12.038211,20.0755659 13.1256239,21.1698113 14.4622232,21.1698113 C15.7988225,21.1698113 16.8862353,20.0755659 16.8862353,18.7305683 C16.8862353,17.3855707 15.7988225,16.2913605 14.4622232,16.2913605 Z M14.8250234,3.11320755 C12.0259775,3.11320755 10.2130272,4.26964351 8.78967595,6.33204802 C8.53147458,6.70617554 8.61107761,7.21913338 8.97125502,7.49453084 L10.4839931,8.65117898 C10.8477474,8.9292993 11.3653074,8.864269 11.6500899,8.50449835 C12.5284935,7.39481065 13.1800811,6.75589419 14.5521639,6.75589419 C15.6309778,6.75589419 16.965363,7.45602187 16.965363,8.5109342 C16.965363,9.30841283 16.312513,9.71797285 15.2473052,10.3201838 C14.0051122,11.0224685 12.3612921,11.89647 12.3612921,14.0828529 L12.3612921,14.4289739 C12.3612921,14.8976942 12.7380915,15.2776564 13.20291,15.2776564 L15.7442806,15.2776564 C16.2090992,15.2776564 16.5858986,14.8976942 16.5858986,14.4289739 L16.5858986,14.2248304 C16.5858986,12.709225 20.9787234,12.6461042 20.9787234,8.54477541 C20.9787234,5.45613698 17.8015806,3.11320755 14.8250234,3.11320755 Z" id="Combined-Shape"></path>
            </g>
        </g>
    </g>
</svg>