<?xml version="1.0" encoding="UTF-8"?>
<svg width="47px" height="40px" viewBox="0 0 47 40" version="1.1" xmlns="http://www.w3.org/2000/svg" xmlns:xlink="http://www.w3.org/1999/xlink">
    <!-- Generator: Sketch 57.1 (83088) - https://sketch.com -->
    <title>undo-light</title>
    <desc>Created with Sketch.</desc>
    <g id="Coding-Blocks" stroke="none" stroke-width="1" fill="none" fill-rule="evenodd">
        <g id="RepeatBlocks" transform="translate(-111.000000, -242.000000)" fill="#FFFFFF">
            <g id="undo-light" transform="translate(138.000000, 262.000000) rotate(-30.000000) translate(-138.000000, -262.000000) translate(118.000000, 242.000000)">
                <g id="Path">
                    <path d="M0.967741935,-1.91124209e-05 L1.77419355,-1.91124209e-05 C2.30862903,-1.91124209e-05 2.74193548,0.433306452 2.74193548,0.967741935 L2.74193548,9.8891129 C6.22548387,3.95540323 12.6805645,-0.022983871 20.0639516,-1.91124209e-05 C31.0629032,0.034516129 40.0171774,9.03298387 40.0000247,20.0319355 C39.9827419,31.0629839 31.035,40 20,40 C14.8446774,40 10.145,38.0494355 6.59854839,34.846129 C6.18620968,34.4737097 6.16677419,33.8331452 6.55967742,33.4402419 L7.12975806,32.8701613 C7.49290323,32.5070161 8.07725806,32.49 8.45895161,32.8335484 C11.5146774,35.5837097 15.5592742,37.2580645 20,37.2580645 C29.4954839,37.2580645 37.2580645,29.5700806 37.2580645,20 C37.2580645,10.5045161 29.5700806,2.74193548 20,2.74193548 C13.3175806,2.74193548 7.52120968,6.53846774 4.6541129,12.0967742 L13.8709677,12.0967742 C14.4054032,12.0967742 14.8387097,12.5300806 14.8387097,13.0645161 L14.8387097,13.8709677 C14.8387097,14.4054032 14.4054032,14.8387097 13.8709677,14.8387097 L0.967741935,14.8387097 C0.433306452,14.8387097 0,14.4054032 0,13.8709677 L0,0.967741935 C0,0.433306452 0.433306452,-1.91124209e-05 0.967741935,-1.91124209e-05 Z" fill-rule="nonzero"></path>
                </g>
            </g>
        </g>
    </g>
</svg>