<?xml version="1.0" encoding="UTF-8"?>
<svg width="39px" height="26px" viewBox="0 0 39 26" version="1.1" xmlns="http://www.w3.org/2000/svg" xmlns:xlink="http://www.w3.org/1999/xlink">
    <!-- Generator: Sketch 56.3 (81716) - https://sketch.com -->
    <title>toggle-on-regular</title>
    <desc>Created with Sketch.</desc>
    <g id="Style-Guide" stroke="none" stroke-width="1" fill="none" fill-rule="evenodd">
        <g id="CodingBlocks" transform="translate(-686.000000, -1001.000000)" fill="#FFFFFF" fill-rule="nonzero">
            <g id="toggle-on-regular" transform="translate(686.000000, 1001.000000)">
                <path d="M26,0 L13,0 C5.82291667,0 0,5.82291667 0,13 C0,20.1770833 5.82291667,26 13,26 L26,26 C33.1770833,26 39,20.1770833 39,13 C39,5.82291667 33.1770833,0 26,0 Z M26,22.75 C20.6104167,22.75 16.25,18.3895833 16.25,13 C16.25,7.61041667 20.6104167,3.25 26,3.25 C31.3895833,3.25 35.75,7.61041667 35.75,13 C35.75,18.3895833 31.3895833,22.75 26,22.75 Z" id="Shape"></path>
            </g>
        </g>
    </g>
</svg>