<?xml version="1.0" encoding="UTF-8"?>
<svg width="41px" height="28px" viewBox="0 0 41 28" version="1.1" xmlns="http://www.w3.org/2000/svg" xmlns:xlink="http://www.w3.org/1999/xlink">
    <!-- Generator: Sketch 57.1 (83088) - https://sketch.com -->
    <title>ToggleOffIcon</title>
    <desc>Created with Sketch.</desc>
    <g id="Style-Guide" stroke="none" stroke-width="1" fill="none" fill-rule="evenodd">
        <g id="StyleGuide" transform="translate(-3808.000000, -661.000000)">
            <g id="Group-6" transform="translate(3024.000000, 267.000000)">
                <g id="Group-26" transform="translate(2.000000, 339.000000)">
                    <g id="Group-19" transform="translate(762.000000, 28.000000)">
                        <g id="ToggleOffIcon" transform="translate(20.000000, 27.000000)">
                            <path d="M25,24.8320313 C34.3261719,24.8320313 37.8125,19.2989899 37.8125,13.5 C37.8125,7.70101013 32.4882813,2.48828125 25,2.48828125 C17.5117187,2.48828125 25,7.70101013 25,13.5 C25,19.2989899 15.6738281,24.8320313 25,24.8320313 Z" id="Oval" fill="#4AA810"></path>
                            <circle id="Oval" fill="#7CD147" cx="14" cy="14" r="11"></circle>
                            <g id="toggle-off-regular" fill="#4AA810" fill-rule="nonzero">
                                <path d="M27.3333333,0 L13.6666667,0 C6.11875174,0 0,6.11875174 0,13.6666667 C0,21.2145816 6.11875174,27.3333333 13.6666667,27.3333333 L27.3333333,27.3333333 C34.8812483,27.3333333 41,21.2145816 41,13.6666667 C41,6.11875174 34.8812483,0 27.3333333,0 Z M3.41666667,13.6666667 C3.41666667,8.00190451 8.00097917,3.41666667 13.6666667,3.41666667 C19.3313576,3.41666667 23.9166667,8.00097917 23.9166667,13.6666667 C23.9166667,19.3313576 19.3323542,23.9166667 13.6666667,23.9166667 C8.00197569,23.9166667 3.41666667,19.3323542 3.41666667,13.6666667 Z M27.3333333,23.9166667 L22.7051736,23.9166667 C28.8768125,18.4702865 28.8753177,8.86169444 22.7051736,3.41666667 L27.3333333,3.41666667 C32.9980243,3.41666667 37.5833333,8.00097917 37.5833333,13.6666667 C37.5833333,19.3313576 32.9990208,23.9166667 27.3333333,23.9166667 Z" id="Shape"></path>
                            </g>
                        </g>
                    </g>
                </g>
            </g>
        </g>
    </g>
</svg>