<?xml version="1.0" encoding="utf-8"?>
<!-- Generator: Adobe Illustrator 22.0.0, SVG Export Plug-In . SVG Version: 6.00 Build 0)  -->
<svg version="1.1" id="Layer_1" xmlns="http://www.w3.org/2000/svg" xmlns:xlink="http://www.w3.org/1999/xlink" x="0px" y="0px"
	 viewBox="0 0 1024 1024" style="enable-background:new 0 0 1024 1024;" xml:space="preserve">
<style type="text/css">
	.st0{fill:none;}
	.st1{fill:#C7CBD1;stroke:#C7CBD1;}
	.st2{fill:#E3E5E8;stroke:#E3E5E8;}
	.st3{fill:#3E8C0B;stroke:#3E8C0B;}
	.st4{fill:#FBE66A;}
	.st5{fill:#F9DC28;}
	.st6{fill:#DFC104;}
	.st7{fill:none;stroke:#17191C;}
	.st8{fill:none;stroke:#FBE66A;}
	.st9{fill:#4AA810;stroke:#4AA810;}
	.st10{fill:#FFFFFF;}
	.st11{fill:#17191C;}
	.st12{fill:none;stroke:#3E8C0B;}
</style>
<title>Firefly</title>
<desc>Created with Sketch.</desc>
<g id="Firefly">
	<rect id="Rectangle" x="11" y="5.3" class="st0" width="1024" height="1024"/>
	<g id="Group-3" transform="translate(162.000000, 411.000000)">
		<path id="Combined-Shape" class="st1" d="M49.9,70.1c44.8-25.5,101.2-27,148.1,1.2c46.4,27.9,71.6,77.6,70.6,128.6
			c-44.8,25.5-101.2,27-148.1-1.2C74.1,170.9,48.9,121.1,49.9,70.1z"/>
		<path id="Combined-Shape-Copy" class="st2" d="M108.6,262.1c6.6-32.7,29.6-61.1,63.1-72.6c34.4-11.9,71.1-2.9,96.5,20.2
			c-6.6,32.7-29.6,61.1-63.1,72.6C170.7,294.2,134,285.2,108.6,262.1z"/>
	</g>
	<g id="Group-2" transform="translate(566.000000, 411.000000)">
		<path id="Combined-Shape-Copy-2" class="st1" d="M271.2,72.6C225.5,45.8,168.2,43.7,121,72C74.3,100.1,49.3,151,50.9,203.3
			c45.7,26.8,103,28.9,150.2,0.6C247.8,175.8,272.8,125,271.2,72.6z"/>
		<path id="Combined-Shape-Copy-3" class="st2" d="M211.3,260.6c-6.4-33.7-29.4-62.8-63.2-74.4c-34.7-11.9-71.8-2.4-97.7,21.7
			c6.4,33.7,29.4,62.8,63.2,74.4C148.3,294.2,185.4,284.7,211.3,260.6z"/>
	</g>
	<path id="Combined-Shape_1_" class="st3" d="M449.9,576.7c19.8,8.8,46.2,13.6,72.6,13.6c27,0,54-5,73.9-14.2
		c23,18.3,37.6,45.2,37.6,75.1c0,55.2-50,80-111,80s-110-24.8-110-80C413,621.6,427.2,595,449.9,576.7z"/>
	<path id="Combined-Shape-Copy-5" class="st4" d="M641.2,642.1c0.5,4.1,0.8,8.3,0.8,12.5c0,59.7-53.6,86.6-119.1,86.6
		c-65.4,0-117.9-26.9-117.9-86.6c0-5.9,0.5-11.7,1.5-17.3c33.6,23.4,77.3,35.9,121,35.9C568.1,673.3,608.7,662.4,641.2,642.1z"/>
	<path id="Combined-Shape_2_" class="st5" d="M636.7,682.9c-32.7,16.6-72.2,25.5-111.6,25.5c-41.1,0-82.1-9.6-115.5-27.5
		c-2.9-8.2-4.5-17.4-4.5-27.4c0-5.6,0.5-11.1,1.4-16.5c33.4,22.5,76.7,34.6,120,34.6c41,0,82.1-10.9,114.7-31.2
		c0.6,4.3,0.9,8.6,0.9,13C642,664.3,640.1,674.1,636.7,682.9z"/>
	<path id="Combined-Shape-Copy-7" class="st6" d="M642,647.4c-33.7,16.8-75.3,25.8-117,25.8c-42.9,0-85.8-9.5-120-27.3
		c0.2-12.7,3.6-24.9,9.6-35.9c32.1,16.8,72,25.8,111.8,25.8c37.9,0,75.9-8.2,107.2-23.5c5.4,10.7,8.4,22.3,8.4,34.5
		C642,647,642,647.2,642,647.4z"/>
	<path id="Line" class="st7" d="M488.3,310.1c-7.8-26.3-21.6-49.5-41.4-69.7c-19.8-20.1-42.3-27.2-67.5-21.2"/>
	<path id="Line-Copy" class="st7" d="M567,310.1c7.9-26.3,21.9-49.5,42-69.6c20.1-20.1,43.1-27.1,68.9-21.1"/>
	<path id="Line-2" class="st8" d="M430.7,756.5l-35.2,27"/>
	<path id="Line-2-Copy" class="st8" d="M523.4,783.6v45.2"/>
	<path id="Line-2-Copy-2" class="st8" d="M616.5,757.4l34.7,26.2"/>
	<path id="Oval" class="st9" d="M523.5,581.3c77.3,0,154.5-50,154.5-135.4s-69.2-154.6-154.5-154.6S369,360.5,369,445.9
		S446.3,581.3,523.5,581.3z"/>
	<g id="Group" transform="translate(374.000000, 364.000000)">
		<circle id="Oval_1_" class="st10" cx="75" cy="69.3" r="64"/>
		<path id="Oval_2_" class="st11" d="M75.6,108.3c21.2,0,38.4-17.9,38.4-40s-17.3-41.6-38.4-40c-19.7,1.5-25,9-16,22.4
			c-13.2-6.9-20.7-1-22.4,17.6C35,90.3,54.4,108.3,75.6,108.3z"/>
	</g>
	<g id="Group-Copy" transform="translate(523.000000, 364.000000)">
		<circle id="Oval_3_" class="st10" cx="75" cy="69.3" r="64"/>
		<path id="Oval_4_" class="st11" d="M75.2,108.8c21.3,0,38.7-17.9,38.7-40.1S96.4,27,75.2,28.6c-19.8,1.5-25.2,9-16.1,22.4
			c-13.3-6.9-20.8-1-22.6,17.6C34.4,90.7,53.8,108.8,75.2,108.8z"/>
	</g>
	<path id="Line-4" class="st12" d="M493,528.3c9.8,6.9,19.9,10.3,30.1,10.3s20.8-3.4,31.8-10.3"/>
</g>
</svg>
