<?xml version="1.0" encoding="UTF-8" ?>
<svg width="1024px" height="1024px" viewBox="0 0 1024 1024" version="1.1" xmlns="http://www.w3.org/2000/svg" xmlns:xlink="http://www.w3.org/1999/xlink">
    <!-- Generator: Sketch 55.2 (78181) - https://sketchapp.com -->
    <title>Firefly</title>
    <desc>Created with Sketch.</desc>
    <g id="Firefly" stroke="none" strokeWidth="1" fill="none" fillRule="evenodd">
        <rect id="Rectangle" x="0" y="0" width="1024" height="1024"></rect>
        <g id="Group-3" transform="translate(162.000000, 411.000000)" strokeWidth="15">
            <path d="M147.561286,2.61802575 C192.500779,27.8373476 222.807215,75.4927715 222.807215,130.128416 C222.807215,184.215835 193.105929,231.462413 148.909646,256.872877 C103.970153,231.653555 73.6637168,183.998131 73.6637168,129.362487 C73.6637168,75.2750681 103.365003,28.02849 147.561286,2.61802575 Z" id="Combined-Shape" stroke="#C7CBD1" fill="#C7CBD1" transform="translate(148.235466, 129.745451) rotate(-59.000000) translate(-148.235466, -129.745451) "></path>
            <path d="M178.623088,146.609442 C207.438809,163.492345 226.750839,194.495449 226.750839,229.946527 C226.750839,266.375807 206.358351,298.108261 176.216247,314.648707 C147.400525,297.765804 128.088496,266.7627 128.088496,231.311623 C128.088496,194.882343 148.480984,163.149889 178.623088,146.609442 Z" id="Combined-Shape-Copy" stroke="#E3E5E8" fill="#E3E5E8" transform="translate(177.419667, 230.629075) rotate(-109.000000) translate(-177.419667, -230.629075) "></path>
        </g>
        <g id="Group-2" transform="translate(566.000000, 411.000000)" strokeWidth="15">
            <path d="M149.361701,4.63755459 C195.855101,30.0449968 227.209467,78.0559004 227.209467,133.099092 C227.209467,187.58997 196.481176,235.188978 150.756683,260.788988 C104.263283,235.381546 72.9089173,187.370642 72.9089173,132.32745 C72.9089173,77.836573 103.637208,30.237565 149.361701,4.63755459 Z" id="Combined-Shape-Copy-2" stroke="#C7CBD1" fill="#C7CBD1" transform="translate(150.059192, 132.713271) scale(-1, 1) rotate(-59.000000) translate(-150.059192, -132.713271) "></path>
            <path d="M121.068633,144.354938 C150.880738,161.363777 170.860535,192.598145 170.860535,228.313665 C170.860535,265.014685 149.76292,296.983843 118.578569,313.647671 C88.7664635,296.638832 68.7866667,265.404464 68.7866667,229.688944 C68.7866667,192.987924 89.8842817,161.018766 121.068633,144.354938 Z" id="Combined-Shape-Copy-3" stroke="#E3E5E8" fill="#E3E5E8" transform="translate(119.823601, 229.001305) scale(-1, 1) rotate(-109.000000) translate(-119.823601, -229.001305) "></path>
        </g>
        <path d="M438.86926,571.421872 C458.661515,580.24134 485.080757,585 511.5,585 C538.491901,585 565.483803,580.032809 585.408372,570.842647 C608.454497,589.160925 623,616.020065 623,645.9522 C623,701.154276 572.998757,726 511.971292,726 C450.943827,726 402,701.154276 402,645.9522 C402,616.334018 416.241973,589.724705 438.86926,571.421872 Z" id="Combined-Shape" stroke="#3E8C0B" strokeWidth="15" fill="#3E8C0B"></path>
        <path d="M630.214587,636.877779 C630.733367,640.984812 631,645.161895 631,649.395809 C631,709.119263 577.378757,736 511.933014,736 C446.487272,736 394,709.119263 394,649.395809 C394,643.50286 394.51653,637.720005 395.510528,632.08289 C429.080232,655.437043 472.790116,668 516.5,668 C557.116979,668 597.733958,657.152047 630.214587,636.877779 Z" id="Combined-Shape-Copy-5" fill="#FBE66A"></path>
        <path d="M625.652526,677.59244 C592.973739,694.219612 553.498662,703.070886 514.023585,703.070886 C472.958952,703.070886 431.894318,693.492426 398.480485,675.54609 C395.56108,667.333756 394,658.19377 394,648.096152 C394,642.48732 394.486853,636.98022 395.424815,631.606829 C428.840953,654.124401 472.137061,666.229794 515.433168,666.229794 C556.462324,666.229794 597.49148,655.358873 630.112749,635.057962 C630.698441,639.33062 631,643.68188 631,648.096152 C631,659.040491 629.126519,668.859863 625.652526,677.59244 Z" id="Combined-Shape" fill="#F9DC28"></path>
        <path d="M630.997372,642.147021 C597.328908,658.953756 555.676246,667.932652 514.023585,667.932652 C471.106447,667.932652 428.189308,658.400324 394.00581,640.594772 C394.164909,627.858235 397.586781,615.734434 403.646938,604.713436 C435.782882,621.525855 475.608025,630.510014 515.433168,630.510014 C553.367946,630.510014 591.302723,622.358509 622.592092,607.054486 C628.016623,617.714255 631,629.346357 631,641.52528 C631,641.732989 630.999123,641.940236 630.997372,642.147021 Z" id="Combined-Shape-Copy-7" fill="#DFC104"></path>
        <path d="M471.342663,311.176154 C466.815899,284.115288 455.964944,259.383606 438.789797,236.981105 C421.61465,214.578604 400.132272,204.805013 374.342663,207.660331" id="Line" stroke="#17191C" strokeWidth="15" strokeLinecap="round" transform="translate(422.842663, 259.176154) rotate(-7.000000) translate(-422.842663, -259.176154) "></path>
        <path d="M661.017548,311.298023 C656.397449,284.237158 645.322762,259.505475 627.793489,237.102974 C610.264216,214.700473 588.338902,204.926882 562.017548,207.7822" id="Line-Copy" stroke="#17191C" strokeWidth="15" strokeLinecap="round" transform="translate(611.517548, 259.298023) scale(-1, 1) rotate(-7.000000) translate(-611.517548, -259.298023) "></path>
        <path d="M419.723234,751.254611 L384.5,778.254611" id="Line-2" stroke="#FBE66A" strokeWidth="15" strokeLinecap="round"></path>
        <path d="M512.388383,778.377306 L512.388383,823.622694" id="Line-2-Copy" stroke="#FBE66A" strokeWidth="15" strokeLinecap="round"></path>
        <path d="M614.388383,745.254611 L631.388383,785.254611" id="Line-2-Copy-2" stroke="#FBE66A" strokeWidth="15" strokeLinecap="round" transform="translate(622.888383, 765.254611) rotate(-29.974508) translate(-622.888383, -765.254611) "></path>
        <path d="M512.5,576 C589.75,576 667,525.985704 667,440.601599 C667,355.217493 597.827994,286 512.5,286 C427.172006,286 358,355.217493 358,440.601599 C358,525.985704 435.25,576 512.5,576 Z" id="Oval" stroke="#4AA810" strokeWidth="15" fill="#4AA810"></path>
        <g id="Group" transform="translate(374.000000, 364.000000)">
            <circle id="Oval" fill="#FFFFFF" cx="64" cy="64" r="64"></circle>
            <path d="M64.5794571,103 C85.798537,103 103,85.1126694 103,63.0475288 C103,40.9823883 85.7405301,21.4674826 64.5794571,23.0950577 C44.8886008,24.609553 39.5636225,32.0633034 48.6045221,45.4563088 C35.4327252,38.5785701 27.9508559,44.4423101 26.1589142,63.0475288 C24.0443289,85.0026633 43.3603771,103 64.5794571,103 Z" id="Oval" fill="#17191C"></path>
        </g>
        <g id="Group-Copy" transform="translate(523.000000, 364.000000)">
            <circle id="Oval" fill="#FFFFFF" cx="64" cy="64" r="64"></circle>
            <path d="M64.1598776,103.529706 C85.507597,103.529706 102.813343,85.5849174 102.813343,63.4488984 C102.813343,41.3128793 85.4492384,21.7352871 64.1598776,23.3680903 C44.3496465,24.8874506 38.9923858,32.3651442 48.0880954,45.8011711 C34.8364452,38.9013395 27.3092175,44.7839152 25.5064122,63.4488984 C23.3790074,85.474558 42.8121581,103.529706 64.1598776,103.529706 Z" id="Oval" fill="#17191C"></path>
        </g>
        <path d="M482,523 C491.838825,529.854346 501.864403,533.281519 512.076733,533.281519 C522.289062,533.281519 532.878996,529.854346 543.846535,523" id="Line-4" stroke="#3E8C0B" strokeWidth="15" strokeLinecap="round"></path>
    </g>
</svg>